<?xml version="1.0" encoding="utf-8"?>
<!-- Generator: Adobe Illustrator 28.0.0, SVG Export Plug-In . SVG Version: 6.00 Build 0)  -->
<svg version="1.1" id="レイヤー_1" xmlns="http://www.w3.org/2000/svg" xmlns:xlink="http://www.w3.org/1999/xlink" x="0px"
	 y="0px" viewBox="0 0 532 436" style="enable-background:new 0 0 532 436;" xml:space="preserve">
<style type="text/css">
	.HyogoName{fill:none;stroke:#B7D564;stroke-width:6;}
	.KyotoName{fill:none;stroke:#B35A87;stroke-width:6;}
	.ShigaName{fill:none;stroke:#77B8D2;stroke-width:6;}
	.WakayamaName{fill:none;stroke:#5971BD;stroke-width:6;}
	.NaraName{fill:none;stroke:#DBA751;stroke-width:6;}
	.Hyogo{fill:#C1DB77;}
	.Wakayama{fill:#5971BD;}
	.Nara{fill:#DBA751;}
	.Kyoto{fill:#B35A87;}
	.Shiga{fill:#77B8D2;}
</style>
<path class="HyogoText" d="M42.5,80H45v6.2h-2.5V80z M30.9,85.3h18.2v2.3H30.9V85.3z M35.3,79.2h12.8v2.2H35.3V79.2z M41.2,89.2l1.9-1.6
	c1.8,0.9,4.6,2.4,6.1,3.4l-2,1.9C45.9,91.9,43.2,90.3,41.2,89.2z M34.1,75.1l2.5,0.5v10.6h-2.5V75.1z M45,74l2,1.9
	c-3.4,0.9-7.8,1.5-11.7,1.8c-0.1-0.6-0.4-1.5-0.7-2C38.4,75.3,42.5,74.7,45,74z M36.6,87.6l2.2,1.6c-1.6,1.3-4.2,2.8-6.2,3.7
	c-0.4-0.6-1.2-1.4-1.7-1.9C32.9,90.2,35.3,88.7,36.6,87.6z M55.2,78.8h13.4v1.8H55.2V78.8z M54.4,88.7h14.9v1.9H54.4V88.7z
	 M60.5,77.6h2.3v15.2h-2.3V77.6z M57.9,85.3v1h7.6v-1H57.9z M57.9,83v1h7.6v-1H57.9z M55.8,81.5h11.9v6.3H55.8V81.5z M59.4,74h2.5
	v2.8h-2.5V74z M53.3,75.6h15.8v2.1H53.3V75.6z M52.2,75.6h2.3v6.5c0,3.2-0.3,7.8-2.1,10.7c-0.4-0.4-1.4-1.1-1.9-1.4
	c1.6-2.6,1.8-6.5,1.8-9.3V75.6z"/>
<path class="HyogoName" d="M23,59h54c11,0,20,9,20,20v4c0,11-9,20-20,20H23c-11,0-20-9-20-20v-4C3,68,12,59,23,59z"/>
<path class="KyotoText" d="M318.1,17.9h17.7v2.3h-17.7V17.9z M325.7,16h2.6v3.1h-2.6V16z M322.8,23.7V26h8.4v-2.3H322.8z M320.4,21.6h13.3v6.4h-13.3
	V21.6z M330.4,29.9l2.2-1.1c1.2,1.3,2.9,3.1,3.6,4.3l-2.4,1.2C333.2,33.1,331.6,31.2,330.4,29.9z M325.7,27.2h2.5v5.1
	c0,1.2-0.2,1.8-1.1,2.2c-0.9,0.3-2.1,0.3-3.7,0.3c-0.1-0.7-0.4-1.6-0.8-2.3c1,0,2.3,0,2.6,0c0.3,0,0.4-0.1,0.4-0.3V27.2z M321,28.8
	l2.4,0.8c-1,1.6-2.5,3.4-3.9,4.5c-0.5-0.5-1.4-1.1-1.9-1.4C318.9,31.7,320.3,30.1,321,28.8z M338.6,18.1h6.9v2.1h-6.9V18.1z
	 M341,31.8h5v1.9h-5V31.8z M341,28.6h5.1v1.8H341V28.6z M337.7,21.8H348v2.1h-10.2V21.8z M341.2,16.2h2.2v7h-2.2V16.2z M346.5,16.9
	l2.2,0.6c-2,5.2-5.5,9.3-10.1,11.7c-0.3-0.5-1-1.5-1.4-2C341.5,25.2,344.8,21.6,346.5,16.9z M341.8,25.4h4.2v1.9h-4.2v7.4h-2.2v-8
	l1.3-1.4H341.8z M345,25.4h2.3v9.1H345V25.4z M348.6,17.1h5.9v2.2H351v15.4h-2.4V17.1z M353.9,17.1h0.5l0.4-0.1l1.7,1.1
	c-0.7,1.9-1.6,4.2-2.4,6c1.7,1.8,2,3.4,2,4.7c0,1.5-0.3,2.5-1.1,3c-0.4,0.3-0.9,0.5-1.4,0.5c-0.5,0.1-1.1,0.1-1.7,0
	c0-0.6-0.3-1.7-0.6-2.3c0.5,0,0.9,0.1,1.3,0c0.3,0,0.6-0.1,0.8-0.2c0.4-0.2,0.5-0.7,0.5-1.4c0-1.1-0.5-2.6-2.1-4.1
	c0.8-2,1.8-5,2.2-6.4V17.1z"/>
<path class="KyotoName" d="M310,3h54c11,0,20,9,20,20v4c0,11-9,20-20,20h-54c-11,0-20-9-20-20v-4C290,12,299,3,310,3z"/>
<path class="ShigaText" d="M468.1,121.4h13.6v2.2h-13.6V121.4z M470,118.9l2-0.8c0.7,0.9,1.4,2.1,1.7,2.9l-2.1,0.9C471.3,121.1,470.7,119.8,470,118.9z
	 M467.6,128.5l0.9-1.8c1.2,1,2.5,2.3,3.1,3.2l-1,2C470.1,130.9,468.8,129.5,467.6,128.5z M472.2,131.8l1.7-0.7
	c0.7,1.5,1.2,3.5,1.4,4.8l-1.8,0.8C473.3,135.3,472.8,133.3,472.2,131.8z M477.8,118l2.6,0.7c-0.7,1.1-1.4,2.3-2,3l-2-0.7
	C476.9,120.2,477.5,118.9,477.8,118z M470.3,123.5l2.2,0.7c-0.8,1.6-1.7,3.4-2.4,4.6l-1.6-0.7C469.1,127,469.9,125,470.3,123.5z
	 M467.4,134c1.7-0.1,4-0.4,6.4-0.6l0.1,1.9c-2.2,0.3-4.4,0.6-6.1,0.8L467.4,134z M474.3,128.6l0.9-1.8c1.2,1,2.6,2.3,3.2,3.2l-1,2
	C476.7,131,475.4,129.6,474.3,128.6z M478.7,131.7l1.8-0.8c0.8,1.5,1.5,3.6,1.7,4.9l-1.9,0.9C480.1,135.3,479.5,133.2,478.7,131.7z
	 M476.9,123.5l2.2,0.8c-0.8,1.6-1.7,3.5-2.4,4.6l-1.7-0.7C475.7,126.9,476.5,124.9,476.9,123.5z M479.4,126.1l2.1,0.9
	c-1.4,2.6-3.3,5.9-4.8,7.9l-1.5-0.7C476.7,132,478.4,128.5,479.4,126.1z M472.7,126.1l2.1,0.8c-1.4,2.7-3.3,6-4.8,8l-1.5-0.7
	C469.9,132,471.7,128.6,472.7,126.1z M474.7,133.9c1.6-0.1,3.9-0.3,6.2-0.5l0.1,1.9c-2.1,0.3-4.2,0.5-5.9,0.8L474.7,133.9z
	 M464.1,120.1l1.3-1.7c1.2,0.5,2.8,1.3,3.6,2l-1.4,1.9C466.8,121.6,465.3,120.6,464.1,120.1z M463,125.6l1.3-1.8
	c1.2,0.4,2.8,1.2,3.6,1.9l-1.4,2C465.9,127,464.3,126.1,463,125.6z M463.5,135.3c0.9-1.5,2.1-3.9,3-6.1l1.8,1.4
	c-0.8,2-1.8,4.2-2.8,6.1L463.5,135.3z M483.6,119.2h7.7v1.9h-7.7V119.2z M490.7,119.2h2.1c0,0,0,0.5,0,0.8c-0.1,2.4-0.3,3.5-0.7,4
	c-0.4,0.4-0.8,0.5-1.3,0.6c-0.5,0.1-1.3,0.1-2.2,0c0-0.6-0.2-1.3-0.5-1.8c0.7,0.1,1.4,0.1,1.7,0.1c0.3,0,0.4,0,0.6-0.2
	c0.2-0.2,0.3-1,0.4-3.2V119.2z M495.8,120.8v2h2.7v-2H495.8z M493.7,119h7.2v5.6h-7.2V119z M488.2,128.9v0.9h8.7v-0.9H488.2z
	 M488.2,131.1v0.9h8.7v-0.9H488.2z M488.2,126.7v0.8h8.7v-0.8H488.2z M485.9,125.3h13.4v8.2h-13.4V125.3z M493.6,134.5l1.9-1.2
	c2.1,0.7,4.6,1.7,6.1,2.4l-2.6,1.2C497.8,136.2,495.7,135.2,493.6,134.5z M489.2,133.3l2.2,1c-1.6,1.1-4.2,2.1-6.3,2.6
	c-0.4-0.5-1.2-1.4-1.8-1.8C485.4,134.7,487.8,134,489.2,133.3z M486.7,118h2.2c-0.2,3.7-0.9,6.3-4.7,7.7c-0.2-0.6-0.8-1.4-1.3-1.8
	C486.1,122.9,486.5,120.9,486.7,118z"/>
<path class="ShigaName" d="M455,104h54c11,0,20,9,20,20v4c0,11-9,20-20,20h-54c-11,0-20-9-20-20v-4C435,113,444,104,455,104z"/>
<path class="WakayamaText" d="M104.2,392h6v2.3h-6V392z M103.3,380h8v15.8h-2.5v-13.5h-3.2v13.6h-2.3V380z M97.5,380.1h2.4v16.8h-2.4V380.1z M93.9,384.1
	h8.9v2.2h-8.9V384.1z M97.3,384.9l1.6,0.5c-0.9,3.2-2.4,7-4.3,9.1c-0.2-0.7-0.8-1.6-1.2-2.3C95.1,390.5,96.6,387.5,97.3,384.9z
	 M101.3,378.3l1.6,1.9c-2.4,0.8-5.5,1.4-8.3,1.7c-0.1-0.5-0.4-1.4-0.7-1.9C96.6,379.6,99.5,379,101.3,378.3z M99.6,386.4
	c0.6,0.6,2.8,3.1,3.3,3.7l-1.4,2c-0.7-1.2-2.3-3.5-3-4.5L99.6,386.4z M125.1,381.7h5.7v2.2h-5.7V381.7z M113.8,379.1h10v1.9h-10
	V379.1z M127.5,382.6h1.1v3.8c0,1.9,0.7,6.1,4,8.4c-0.4,0.5-1.1,1.5-1.4,2.1c-2.3-1.6-3.4-5-3.7-6.6c-0.3,1.7-1.4,4.9-3.9,6.6
	c-0.2-0.5-0.9-1.6-1.3-2c3.3-2.3,4-6.5,4-8.5v-3.8H127.5z M124.9,378.2l2.3,0.3c-0.5,3.5-1.4,6.8-2.8,8.9c-0.4-0.3-1.4-1-2-1.3
	C123.7,384.3,124.5,381.3,124.9,378.2z M130.2,381.7h0.3l0.3-0.1l1.6,0.3c-0.2,1.9-0.6,4-1,5.3l-1.9-0.4c0.3-1.2,0.5-3.2,0.7-4.8
	V381.7z M120.5,380.1h2.1v5.3c0,0.9-0.2,1.4-0.8,1.7c-0.6,0.3-1.4,0.3-2.6,0.3c-0.1-0.5-0.4-1.3-0.6-1.8c0.7,0,1.4,0,1.6,0
	c0.2,0,0.3-0.1,0.3-0.3V380.1z M115.5,381.7h4v4.1h-4v-1.4h2.2v-1.2h-2.2V381.7z M114.5,381.7h1.7v4.7h-1.7V381.7z M115.5,390.4h4
	v4.3h-4v-1.5h2.3v-1.2h-2.3V390.4z M114.4,390.4h1.7v5.2h-1.7V390.4z M113.6,387.6H124v2h-10.5V387.6z M120.5,388.6h2.1v6.1
	c0,1-0.2,1.5-0.8,1.8c-0.6,0.3-1.5,0.3-2.6,0.3c-0.1-0.6-0.4-1.4-0.6-1.9c0.7,0,1.4,0,1.6,0c0.2,0,0.3-0.1,0.3-0.3V388.6z
	 M141.6,378.6h2.5v15.7h-2.5V378.6z M134.8,383h2.5v13.7h-2.5V383z M148.7,382.9h2.5v13.7h-2.5V382.9z M136,392.8h13.8v2.5H136
	V392.8z"/>
<path class="WakayamaName" d="M99,365h48c11,0,20,9,20,20v1.6c0,11-9,20-20,20H99c-11,0-20-9-20-20V385C79,374,88,365,99,365z"/>
<path class="NaraText" d="M413.2,347.3h17.6v2.2h-17.6V347.3z M414.8,355.7h14.4v2.1h-14.4V355.7z M417.9,352h8v2.1h-8V352z M425.1,348.3
	c1.3,2.1,3.8,4,6.5,5c-0.5,0.5-1.3,1.4-1.6,2c-2.8-1.2-5.3-3.6-6.8-6.2L425.1,348.3z M420.8,356.9h2.4v4.6c0,1.1-0.2,1.6-1.1,2
	c-0.8,0.3-1.9,0.3-3.3,0.3c-0.1-0.6-0.5-1.5-0.8-2.1c0.9,0,2.1,0,2.4,0c0.3,0,0.4-0.1,0.4-0.3V356.9z M416.5,358.5l2.3,0.7
	c-0.9,1.6-2.5,3.2-3.8,4.2c-0.5-0.4-1.4-1.2-1.9-1.5C414.4,361,415.7,359.7,416.5,358.5z M424.7,359.5l1.9-1.1
	c1.3,1.1,2.9,2.6,3.7,3.7l-2.1,1.2C427.6,362.3,426,360.7,424.7,359.5z M420,345l2.6,0.3c-1.3,4-3.9,7.7-8.7,10.1
	c-0.3-0.6-1.1-1.5-1.6-1.9C416.9,351.6,419.2,348.3,420,345z M436.8,350.5h10.6v1.9h-10.6V350.5z M440.6,345h2.5v3h-2.5V345z
	 M433.3,361.3c2.3-0.3,5.9-0.8,9.2-1.3l0.2,2.2c-3.1,0.5-6.4,1-8.8,1.4L433.3,361.3z M442.4,355c1.3,3.6,4.1,5.9,9,6.7
	c-0.5,0.5-1.2,1.5-1.5,2.2c-5.2-1.1-8-3.8-9.7-8.4L442.4,355z M448.6,355.3l1.9,1.5c-1.6,1.2-3.7,2.6-5.3,3.4l-1.6-1.4
	C445.2,357.9,447.3,356.5,448.6,355.3z M436.7,346.9h12.2v9.2h-12.2v-2.1h9.8v-5h-9.8V346.9z M435.4,346.9h2.5v14.8l-2.5,0.2V346.9z
	"/>
<path class="NaraName" d="M405,330h54c11,0,20,9,20,20v4c0,11-9,20-20,20h-54c-11,0-20-9-20-20v-4C385,339,394,330,405,330z"/>
<path class="Hyogo" d="M201.3,240.2l-44.2,44.5c0,0-0.8,8.1,0,8.1s6.5-1.3,6.5-1.3s-1.1,6.4,0.8,9.8c0.5,0.9,0.9,1.6,1.2,2.2
	c0.9,1.8,1.2,2.5,2.4,1.4c1.7-1.5,3.1-2.8,3.1-2.8s2.8,1.3,11.1-3.3c2.1-1.1,3.7-2.1,5.1-2.8c4.1-2.3,5.5-3.1,7.6-3.6l0.2-5.7
	l-2.6-1.2l-4.1-20.8l6.5-6.2l0.5-3.5l11.9-14.5L201.3,240.2L201.3,240.2z"/>
<path class="Wakayama" d="M293.7,270.3L293.7,270.3L293.7,270.3L293.7,270.3z M234,288.3l-2.7,6.9l18.7,21.7l-13.5,11.2l0.3,5.1
	c0,0,3.8-1.4,5.9,3.7l-7,5.9v7l-3,2.2l0.6,6.9h3.5l9.4,10.1c0,0-1.3,0.8,1.1,3.5c2.4,2.7,13,11,19.2,13.3c5.5,3.9,6.2,6.2,6.2,6.2
	l-3.4,4.8l0.2,4.9c0,0,1.4,2,4.9,10.8c0,0,4.2,0.3,9.1,6.6l46.3,13.6l5.3-7.3c0,0,2.9,1.6,7.5-3.4c2.4-1.5,3.6-2,4.5-2.4
	c1.2-0.5,1.8-0.8,3.5-2.5c3.1-3,2.9-8.5,2.9-8.5l-4.6-3.2l11.8-10.4c0,0-2.1-7-8.3-8.6l-8.3-7.3c0,0,2.2-14.5-21.1-14.4l-15.7-1.9
	l-2.7-3.8l5.1-12.8l-12.8-17.2l1.1-7l16.7-16.9c0,0,8.2,2.1,6.6-5.3c-0.7-3.3-2-5.4-3.2-7.5c-1.5-2.5-2.9-5-3.4-9.4H303
	c0,0-9.9,2.9-20,3c0,0-11.5,5.9-21.6,5.1c0,0-2.2,3.5-10.1,3.5L243,296L234,288.3z"/>
<path class="Nara" d="M323.9,220.7l-8.5,20.1c0,0-0.2,5.7,0,5.7c0.2,0,5.3,6.5,3.5,18.5c-1.8,12.1-4.4,12.8-4.2,13.3
	c0.2,0.5,3.5,9.9,6,15c2.5,5,3.8,11.2,3.2,13.3l-10.4,3.2c0,0-13.8,12.2-14.1,16.2l12.3,17.2l-4.2,15c0,0,22.6,2.8,30.8,6.6
	c0.2,0.1,0.3,0.2,0.5,0.2c1.1,0-0.5-8.1,10-10.9c8.7-1,7.3-9.8,11.5-13.2c4.2-3.3,12.1-4.9,12.1-4.9s2.6-8.3-1.2-15.8
	c-3.8-7.5,4.5-15.2,4.5-15.2v-6.3l-3.6-1.6l2.1-9c0,0,0-2.3-4.2-6.2c-4.2-3.9,2.5-8.5,2.5-8.5l12.3-11.1c0,0,0.2-4.4-10.6-9.4
	l-7.2-4.2L369,229l-9-0.4c0,0-9.7-7.3-14.7,0c0,0-11.8,3.5-17.1-7.9h-5"/>
<path class="Kyoto" d="M210.3,62c-1.3,0.7,0,12,0,12l6.2,5.4l14.6-0.5l3.8,4.9l0.7,17.8l-4.1,4.9l-11.4,0.6l-1.8,2.6
	c0,0-1,8.3-0.6,8.8c0.1,0.1,0.1,0.2,0.2,0.3c0.4,0.7,1.2,2.2,5,4.4c4.4,2.6,8.3,6.5,8.3,6.5s8.1-3.2,11.4-3.2c3.2,0,5.9,3.2,5.9,3.2
	s2.4,11.2,4.3,13c1.9,1.8,4.7,4.1,12.6,4.1c0.5,0,0.9,0,1.3,0c7.2,0,11.9,0,13.5,5.3c1.7,5.6,0,13.8,0,13.8l16.3,17.2h7.5l14.5,5.9
	c0,0,8.3,15.4,8.8,26.1c1.8,3.6,14.9,12.9,14.9,12.9s5.3-6.7,11.9-6.4l4.9,4.8l6.5,0.2v-6.6l-12.6-19.6c0,0-6,3.1-12.6-4.1
	c-4.5-6-6.4-11.1-6.4-11.1l-1.6-25.4c0,0-0.7-11.3,3.8-22.4c1.1-5.4,1.3-7.6,1.3-7.6l-9.7-9.9l-8.1-1.9c0,0-13.5-0.1-18-1.8
	c-4.4-1.7-11.4-5.5-11.7-9.1c-0.4-3.6-6.6-10.1-6.6-10.1s-0.2-10.2,7.2-16.3v-7.3c0,0-1.6-2.4-7.5,1.2c-2.5,1.5-3.2,2.5-3.6,3.1
	c-0.6,0.8-0.7,0.9-4.6,0.8l-0.2,7.8l3.1,2.6v4.6l-3-2.2l-5.5,2.6l1.2-5.3l-11-7.1l-7.4,0.5l-7-4.9L265.6,58L260,46.7
	c0,0-3-7.3-14.7-1.4l-1.7,2.5C243.6,47.8,213.1,60.3,210.3,62L210.3,62z"/>
<path class="Hyogo" d="M146.4,204.7c0,0,3.4,5.1,3.8,5.4c0.1,0.1,0.1,0.2,0.2,0.4c0.4,0.9,1.4,3,7.9,3c7.8,0,7.9,0,14.6-1.4
	c2-0.4,3.6-1.3,5-2.1c3.4-1.9,6-3.4,12.1,2.1c-0.5,0.4,3.3,2.9,6.9,5.4c2.7,1.8,5.2,3.6,5.9,4.4c1.6,1.8,14.1,8.5,14.1,8.5
	s4.3,0.6,5.9,4.8c1.6,4.2,12.1-2,12.1-2s16.8-7.5,17.4-7.5c0.6,0,4.2-0.5,5.9-3.8l20,4l6.9-4v-9.4c0,0-4.6-3-4.3-11.3
	c0.3-5.4-1.4-6.7-1.4-6.7l2-5.2l-13.7-10.2v-8.9c0,0,0.7,4.1,7.5-5.8l1-9.6l-2.6-2.6c0,0-9.9,2.5-18.5-1.9
	c-8.5-4.4-8.8-13.7-8.8-13.7l-1.7-3.9c0,0,0.6-2.2-5.3,0c-1.2,0.4-2.2,0.8-3.1,1.2c-3.7,1.6-5.8,2.4-8.7-0.4
	c-3.6-3.5-4.6-4.9-4.6-4.9s-5-0.2-9.6-5.6l-2.5-2.5l2.6-13.3c0,0-1.1-3,5.6-3.1c6.7-0.1,8,0,8,0l2.5-2.2l0.8-14.6l-2.5-2.6h-7.8
	l-2.5,3.6l-13.6-13.5l2.1-10.7c0,0-30.2-6.3-50.4-3.1l-5.8,0.6l-10.8,5.4l16.5,39.9c0,0,3.8,5,2.2,13c-1,4.5-1.1,6.3-2,7.4
	c-0.7,0.8-1.9,1.3-4.2,2.2c-1.5,0.6-3,0.9-4.4,1.3c-3.9,0.9-7.2,1.7-8,6.5c-1,6.6-1,8.3-1,8.3l-20.9,24.7l2.9,4.3v14.9
	c0,0.7-4.6,5.8-4.6,5.8l11,16.5l6.2,0.7l4.3,3.5c0,0,2.6,0.3,5.3-5.4C145,204.1,146.4,204.6,146.4,204.7L146.4,204.7z"/>
<g>
	<path class="Shiga" d="M423,153.2c-2.8-6.3-2.3-11.8-2.3-11.8s-4.2-1.1-8.9-6.7l5.8-14.9c0,0,3.1-5.4,2.9-11.1
		c-0.1-4.4,0.2-5.6,0.3-6c0-0.1,0.1-0.2,0-0.2c-0.1-0.2-7.8-13.6-7.8-13.6l0.3-4l-13-8.5l0-10.3c0,0-1.6,0.7-4.9-1.3
		c-3.3-2-7.2-1.5-7.2-1.5l-0.1,13.3l-7.2,4.2c0,0-4.1,7.6-13,11.1c-2.4,1.3-5.5,3.2-5.5,3.2l-8.8-3.5l-2.9,10.1c0,0-1.8,4.6-4.8,6
		l-7.8,0.1c0,0-1.3,2.8-4.5,4.9c-3.2,2.1-2.5,6-2.5,6l4.7,3.5c0,0,4.3,1.1,4.3,9.7c0,1.6-0.3,3.2-0.5,4.9c-0.3,2.1-0.6,4.3-0.5,6.5
		c0.1,4-4,10.6-4,10.6l2.1,2.8c0,0-6.3,9.1,1.9,23.8c0,0-0.7,10,6.4,15.1c0,0,7-0.6,7.8-0.1c0.8,0.5,13.6,18.4,14.1,19.1l3.3-5.5
		l6.6-0.1l-0.1-7.9c0,0,0.6-2.7,3.6-2.6c3,0,8.6,0.6,12.3,5.1c0,0,3.2,0.8,9.2-2.5c2.1-1.2,3.4-2,4.4-2.7c1.8-1.3,2.7-1.9,6.3-2.5
		c0,0,1.5,0,2.5-5.3c0.7-4,4.5-12.2,6.9-17.3c0.8-1.6,1.4-3,1.7-3.7C425.4,166,425.8,159.5,423,153.2z M394.8,134
		c-10.7,6.4-17.7,14-17.7,14l-0.3,5.3c0,0-6.7,0-8.1-0.1c-0.1,0-0.2,0-0.2,0l0,0c0,0-4.1,4.1-4.2,4.3c-0.1,0.2-0.4,1.9-0.4,1.9
		l-2.8,10.5l-2.6,0c-3-5-0.8-7.4-0.7-7.7c0-0.3,2-4.4,2.7-6.1c0.7-1.7,1.6-7.7,2.2-8.7c0.6-1,2-4.7,7-7.7c4.9-3,6.8-6.8,6.8-6.8
		l-0.4-2.5c0.1-5.2,0-3.3-1.7-6.3c-0.7-4-1.1-5-1.1-5l5.5-5.4c0,0,2.2,0,2.9-0.1c7.9-0.2,8.1,5.5,8.1,5.5l6.6,7.5L394.8,134z"/>
</g>
</svg>
