<?xml version="1.0" encoding="UTF-8"?>
<svg id="_レイヤー_1" data-name="レイヤー 1" xmlns="http://www.w3.org/2000/svg" xmlns:xlink="http://www.w3.org/1999/xlink" viewBox="0 0 578 586.01">
  <defs>
    <style>
      .cls-1 {
        mask: url(#mask);
      }

      .cls-2, .cls-3, .cls-4, .cls-5, .cls-6, .cls-7 {
        fill: #fff;
      }

      .cls-8 {
        fill: #dba751;
      }

      .cls-9 {
        fill: #77b8d2;
      }

      .cls-3 {
        stroke: #b7d564;
      }

      .cls-3, .cls-4, .cls-5, .cls-6, .cls-7 {
        stroke-width: 6px;
      }

      .cls-4 {
        stroke: #77b8d2;
      }

      .cls-5 {
        stroke: #b35a87;
      }

      .cls-6 {
        stroke: #dba751;
      }

      .cls-7 {
        stroke: #5971bd;
      }

      .cls-10 {
        fill: #b35a87;
      }

      .cls-10, .cls-11, .cls-12 {
        stroke: #fff;
        stroke-width: 5px;
      }

      .cls-11 {
        fill: #c1db77;
      }

      .cls-12 {
        fill: #5971bd;
      }

      .cls-13 {
        mask: url(#mask-1);
      }
    </style>
    <mask id="mask" x="304.64" y="266.89" width="133.51" height="223.02" maskUnits="userSpaceOnUse">
      <g id="path-13-inside-1_452_144" data-name="path-13-inside-1 452 144">
        <path class="cls-2" d="m345.09,271.89l-12.22,29.68s-.34,8.47,0,8.47,7.57,9.54,4.99,27.37c-2.58,17.83-6.37,18.9-6.03,19.61.33.71,4.99,14.66,8.62,22.08,3.61,7.42,5.52,16.6,4.65,19.61l-14.99,4.77s-19.82,18.01-20.33,23.86l17.77,25.43-6.05,22.08s32.59,4.06,44.44,9.72c.24.12.47.24.71.34,1.56,0-.69-12.01,14.47-16.07,12.58-1.42,10.51-14.5,16.54-19.43,6.03-4.93,17.41-7.24,17.41-7.24,0,0,3.79-12.19-1.72-23.31-5.5-11.12,6.55-22.44,6.55-22.44v-9.36l-5.17-2.31,3.1-13.24s0-3.36-6.03-9.18c-6.03-5.82,3.61-12.53,3.61-12.53l17.74-16.44s.33-6.53-15.34-13.95l-10.33-6.19,2.58-29.15-12.91-.52s-13.96-10.78-21.2,0c0,0-17.05,5.11-24.65-11.67h-7.24"/>
      </g>
    </mask>
    <mask id="mask-1" x="351.78" y="33.41" width="143.94" height="231.78" maskUnits="userSpaceOnUse">
      <g id="path-16-inside-2_452_144" data-name="path-16-inside-2 452 144">
        <path class="cls-2" d="m406.39,261.06l4.97-8.07h9.51v-11.64s.93-3.91,5.21-3.79c4.28.12,12.39,1.18,17.6,7.83,0,0,4.52,1.3,13.33-3.44,8.81-4.75,7.66-6.11,15.54-7.48,0,0,2.21,0,3.7-7.72,1.49-7.72,10.9-26.23,12.87-30.87,1.97-4.65,2.67-14.24-1.15-23.62-3.82-9.37-3-17.44-3-17.44,0,0-6.03-1.67-12.63-10.21l8.81-21.84s4.64-7.83,4.52-16.26c-.12-8.44.82-8.91.7-9.25-.12-.35-10.9-20.3-10.9-20.3l.58-5.93-18.54-12.94.24-15.2s-2.33,1.06-6.96-2.02c-4.63-3.08-10.3-2.38-10.3-2.38l-.46,19.58-10.42,5.93s-6.15,11.17-19,16.02c-3.48,1.9-8,4.63-8,4.63l-12.51-5.46-4.52,14.83s-2.79,6.77-7.06,8.78l-11.24-.12s-1.97,4.16-6.61,7.13c-4.63,2.97-3.82,8.78-3.82,8.78l6.6,5.34s6.15,1.77,5.91,14.37c-.22,5.26-1.73,10.92-1.73,16.85s-6.03,15.55-6.03,15.55l2.9,4.16s-9.27,13.29,2.03,35.19c0,0-1.35,14.77,8.87,22.44,0,0,10.09-.71,11.3,0,1.21.71,19.75,28.55,19.75,28.55l-.06.04Z"/>
      </g>
    </mask>
  </defs>
  <path class="cls-3" d="m22.26,84.93h44.53c10.64,0,19.26,8.63,19.26,19.26h0c0,10.64-8.63,19.26-19.26,19.26H22.26c-10.64,0-19.26-8.63-19.26-19.26h0c0-10.64,8.63-19.26,19.26-19.26Z"/>
  <path d="m35.6,101h2.48v6.18h-2.48v-6.18Zm-11.64,5.32h18.22v2.26h-18.22v-2.26Zm4.44-6.08h12.78v2.24h-12.78v-2.24Zm5.9,10l1.88-1.6c1.84.9,4.64,2.36,6.06,3.36l-2.02,1.86c-1.26-1-3.98-2.58-5.92-3.62Zm-7.14-14.1l2.46.52v10.62h-2.46v-11.14Zm10.92-1.16l2.04,1.92c-3.36.94-7.82,1.5-11.66,1.8-.1-.58-.42-1.5-.68-2.04,3.68-.32,7.8-.94,10.3-1.68Zm-8.42,13.62l2.18,1.58c-1.64,1.32-4.18,2.78-6.2,3.68-.4-.56-1.18-1.38-1.74-1.88,2.02-.78,4.48-2.26,5.76-3.38Zm18.62-8.82h13.36v1.8h-13.36v-1.8Zm-.84,9.94h14.88v1.94h-14.88v-1.94Zm6.08-11.08h2.28v15.2h-2.28v-15.2Zm-2.58,7.66v1h7.58v-1h-7.58Zm0-2.34v.96h7.58v-.96h-7.58Zm-2.08-1.48h11.86v6.28h-11.86v-6.28Zm3.58-7.46h2.5v2.82h-2.5v-2.82Zm-6.08,1.56h15.8v2.08h-15.8v-2.08Zm-1.12,0h2.28v6.52c0,3.18-.3,7.8-2.14,10.68-.4-.42-1.4-1.12-1.92-1.36,1.64-2.64,1.78-6.48,1.78-9.32v-6.52Z"/>
  <rect class="cls-7" x="145.5" y="504.4" width="77.72" height="36.41" rx="18.2" ry="18.2"/>
  <path d="m165.53,528.25h5.98v2.3h-5.98v-2.3Zm-.86-12.04h8.02v15.78h-2.46v-13.5h-3.22v13.64h-2.34v-15.92Zm-5.86.1h2.4v16.78h-2.4v-16.78Zm-3.6,3.98h8.92v2.22h-8.92v-2.22Zm3.44.84l1.6.54c-.86,3.24-2.42,7.02-4.26,9.06-.24-.7-.8-1.64-1.2-2.26,1.66-1.76,3.18-4.78,3.86-7.34Zm4-6.64l1.56,1.88c-2.36.84-5.54,1.42-8.26,1.74-.1-.54-.4-1.36-.66-1.88,2.62-.36,5.54-1,7.36-1.74Zm-1.66,8.14c.62.58,2.8,3.08,3.28,3.68l-1.38,1.98c-.66-1.22-2.26-3.5-3.04-4.52l1.14-1.14Zm25.46-4.72h5.72v2.18h-5.72v-2.18Zm-11.3-2.62h10.02v1.94h-10.02v-1.94Zm13.7,3.5h1.14v3.8c0,1.94.74,6.14,3.96,8.44-.42.5-1.1,1.52-1.44,2.1-2.32-1.62-3.4-5-3.66-6.6-.28,1.68-1.44,4.92-3.88,6.6-.24-.52-.92-1.56-1.32-2.04,3.32-2.28,4.02-6.52,4.02-8.5v-3.8h1.18Zm-2.64-4.4l2.3.34c-.48,3.48-1.4,6.78-2.78,8.88-.4-.34-1.44-1-1.98-1.28,1.32-1.84,2.1-4.84,2.46-7.94Zm5.3,3.52h.32l.34-.08,1.6.32c-.24,1.86-.62,3.98-1,5.34l-1.92-.42c.26-1.2.52-3.24.66-4.82v-.34Zm-9.66-1.6h2.12v5.26c0,.92-.16,1.38-.78,1.66-.64.28-1.44.3-2.62.3-.08-.54-.38-1.28-.62-1.76.68.02,1.4.02,1.6.02.22-.02.3-.08.3-.26v-5.22Zm-5.02,1.66h3.98v4.1h-3.98v-1.44h2.24v-1.22h-2.24v-1.44Zm-1,0h1.72v4.72h-1.72v-4.72Zm.98,8.66h4.04v4.32h-4.04v-1.54h2.3v-1.24h-2.3v-1.54Zm-1.08,0h1.74v5.24h-1.74v-5.24Zm-.8-2.8h10.46v1.96h-10.46v-1.96Zm6.92.96h2.14v6.14c0,.96-.16,1.5-.82,1.82-.62.3-1.46.32-2.64.32-.08-.56-.36-1.38-.6-1.92.68.02,1.42.02,1.62.02.24-.02.3-.06.3-.28v-6.1Zm21.14-9.92h2.54v15.66h-2.54v-15.66Zm-6.8,4.32h2.46v13.7h-2.46v-13.7Zm13.88-.04h2.48v13.66h-2.48v-13.66Zm-12.68,9.92h13.78v2.48h-13.78v-2.48Z"/>
  <path class="cls-6" d="m447.08,371.7h44.53c10.64,0,19.26,8.63,19.26,19.26h0c0,10.64-8.63,19.26-19.26,19.26h-44.53c-10.64,0-19.27-8.63-19.27-19.26h0c0-10.64,8.63-19.26,19.27-19.26Z"/>
  <path d="m450.26,384.32h17.56v2.16h-17.56v-2.16Zm1.6,8.34h14.42v2.06h-14.42v-2.06Zm3.12-3.68h8.04v2.06h-8.04v-2.06Zm7.18-3.66c1.28,2.1,3.82,4.04,6.46,5-.52.46-1.26,1.38-1.64,1.98-2.76-1.22-5.26-3.58-6.8-6.24l1.98-.74Zm-4.3,8.62h2.42v4.58c0,1.1-.24,1.64-1.06,1.96-.82.3-1.88.32-3.3.32-.14-.62-.52-1.5-.84-2.06.92.04,2.08.04,2.36.02.32,0,.42-.06.42-.3v-4.52Zm-4.34,1.52l2.3.7c-.94,1.58-2.48,3.16-3.82,4.16-.46-.42-1.38-1.18-1.92-1.5,1.34-.82,2.68-2.1,3.44-3.36Zm8.28,1.06l1.94-1.12c1.28,1.08,2.94,2.64,3.74,3.7l-2.08,1.24c-.72-1.04-2.32-2.68-3.6-3.82Zm-4.72-14.52l2.62.34c-1.34,4.04-3.86,7.68-8.72,10.08-.32-.6-1.1-1.48-1.64-1.86,4.62-2,6.88-5.26,7.74-8.56Zm16.78,5.46h10.64v1.9h-10.64v-1.9Zm3.8-5.5h2.52v3h-2.52v-3Zm-7.3,16.32c2.34-.28,5.88-.82,9.16-1.34l.16,2.24c-3.06.52-6.36,1.04-8.76,1.42l-.56-2.32Zm9.14-6.32c1.3,3.64,4.14,5.92,8.96,6.7-.52.52-1.18,1.54-1.52,2.18-5.24-1.08-8.02-3.78-9.68-8.36l2.24-.52Zm6.18.34l1.88,1.46c-1.6,1.24-3.72,2.56-5.32,3.36l-1.6-1.36c1.58-.82,3.72-2.28,5.04-3.46Zm-11.92-8.42h12.24v9.16h-12.24v-2.1h9.78v-4.98h-9.78v-2.08Zm-1.28,0h2.46v14.76l-2.46.2v-14.96Z"/>
  <path class="cls-5" d="m324.18,3h44.53c10.64,0,19.27,8.63,19.27,19.26h0c0,10.64-8.63,19.26-19.27,19.26h-44.53c-10.64,0-19.26-8.63-19.26-19.26h0c0-10.64,8.63-19.26,19.26-19.26Z"/>
  <path d="m327.2,14.94h17.7v2.3h-17.7v-2.3Zm7.52-1.92h2.56v3.06h-2.56v-3.06Zm-2.86,7.66v2.32h8.36v-2.32h-8.36Zm-2.38-2.06h13.3v6.44h-13.3v-6.44Zm9.96,8.26l2.2-1.06c1.24,1.26,2.86,3.06,3.64,4.26l-2.38,1.2c-.66-1.18-2.2-3.06-3.46-4.4Zm-4.68-2.64h2.52v5.06c0,1.2-.24,1.82-1.14,2.16-.86.32-2.06.34-3.68.34-.1-.68-.44-1.64-.76-2.28,1.02.04,2.3.04,2.62.02.34,0,.44-.06.44-.32v-4.98Zm-4.74,1.6l2.44.78c-1,1.6-2.48,3.36-3.9,4.48-.52-.46-1.38-1.08-1.94-1.4,1.34-.98,2.72-2.58,3.4-3.86Zm17.64-10.7h6.92v2.06h-6.92v-2.06Zm2.4,13.64h5.02v1.94h-5.02v-1.94Zm0-3.2h5.08v1.82h-5.08v-1.82Zm-3.26-6.74h10.24v2.08h-10.24v-2.08Zm3.5-5.66h2.22v7.04h-2.22v-7.04Zm5.26.72l2.16.62c-2.04,5.24-5.54,9.3-10.06,11.74-.26-.52-.96-1.52-1.38-2,4.3-2.04,7.54-5.64,9.28-10.36Zm-4.74,8.5h4.22v1.92h-4.22v7.44h-2.16v-7.98l1.3-1.38h.86Zm3.26,0h2.28v9.08h-2.28v-9.08Zm3.6-8.26h5.88v2.24h-3.52v15.4h-2.36V14.14Zm5.32,0h.46l.36-.1,1.74,1.08c-.7,1.92-1.6,4.2-2.4,5.98,1.68,1.78,2.04,3.36,2.04,4.68,0,1.5-.34,2.48-1.12,3-.4.28-.88.46-1.42.52-.48.06-1.12.08-1.74.04-.02-.64-.26-1.68-.64-2.32.52.04.92.06,1.28.04.3,0,.6-.06.82-.18.38-.22.52-.68.52-1.36,0-1.1-.46-2.58-2.1-4.12.82-1.96,1.76-5,2.2-6.44v-.82Z"/>
  <path class="cls-4" d="m511.2,108.98h44.53c10.64,0,19.27,8.63,19.27,19.26h0c0,10.64-8.63,19.26-19.27,19.26h-44.53c-10.64,0-19.26-8.63-19.26-19.26h0c0-10.64,8.63-19.26,19.26-19.26Z"/>
  <path d="m518.64,123.42h13.58v2.16h-13.58v-2.16Zm1.92-2.52l2-.82c.7.88,1.38,2.08,1.7,2.9l-2.12.94c-.26-.84-.92-2.1-1.58-3.02Zm-2.38,9.6l.92-1.8c1.18.96,2.52,2.26,3.12,3.16l-1.02,2.02c-.6-.94-1.88-2.38-3.02-3.38Zm4.56,3.3l1.68-.74c.66,1.52,1.22,3.5,1.4,4.82l-1.82.78c-.14-1.32-.66-3.34-1.26-4.86Zm5.64-13.78l2.56.72c-.68,1.12-1.44,2.26-2,3.04l-1.98-.68c.5-.88,1.1-2.16,1.42-3.08Zm-7.58,5.52l2.16.74c-.78,1.6-1.66,3.44-2.36,4.62l-1.64-.66c.66-1.28,1.44-3.26,1.84-4.7Zm-2.82,10.5c1.66-.14,4.04-.36,6.4-.58l.08,1.92c-2.16.3-4.38.58-6.14.8l-.34-2.14Zm6.82-5.48l.9-1.8c1.24.96,2.58,2.3,3.2,3.22l-1.02,2.02c-.6-.96-1.9-2.42-3.08-3.44Zm4.48,3.12l1.76-.84c.8,1.54,1.46,3.56,1.7,4.9l-1.9.92c-.2-1.34-.84-3.42-1.56-4.98Zm-1.84-8.22l2.2.76c-.78,1.62-1.68,3.48-2.42,4.64l-1.68-.68c.7-1.28,1.48-3.28,1.9-4.72Zm2.52,2.6l2.06.86c-1.4,2.6-3.3,5.88-4.82,7.9l-1.48-.72c1.48-2.14,3.24-5.56,4.24-8.04Zm-6.72,0l2.06.82c-1.4,2.68-3.3,5.98-4.82,8.02l-1.54-.72c1.5-2.14,3.3-5.56,4.3-8.12Zm1.96,7.88c1.6-.1,3.92-.32,6.22-.52l.06,1.92c-2.08.26-4.2.54-5.92.76l-.36-2.16Zm-10.6-13.88l1.34-1.74c1.2.48,2.78,1.34,3.56,2.04l-1.44,1.92c-.7-.7-2.24-1.66-3.46-2.22Zm-1.02,5.5l1.32-1.8c1.22.44,2.82,1.22,3.64,1.88l-1.4,1.96c-.72-.64-2.3-1.52-3.56-2.04Zm.44,9.72c.86-1.46,2.06-3.88,3.02-6.1l1.8,1.36c-.8,2.02-1.8,4.22-2.76,6.1l-2.06-1.36Zm20.14-16.06h7.7v1.9h-7.7v-1.9Zm7.06,0h2.12s0,.5-.02.76c-.1,2.38-.28,3.5-.68,3.98-.36.4-.78.54-1.34.6-.46.06-1.3.08-2.22.02-.02-.56-.24-1.34-.54-1.84.74.08,1.4.08,1.7.08.28,0,.44-.02.58-.18.2-.22.32-1.04.4-3.16v-.26Zm5.16,1.54v1.98h2.72v-1.98h-2.72Zm-2.16-1.8h7.18v5.56h-7.18v-5.56Zm-5.44,9.94v.86h8.7v-.86h-8.7Zm0,2.22v.88h8.7v-.88h-8.7Zm0-4.42v.84h8.7v-.84h-8.7Zm-2.32-1.44h13.44v8.16h-13.44v-8.16Zm7.7,9.2l1.88-1.18c2.14.72,4.64,1.7,6.1,2.38l-2.6,1.16c-1.18-.64-3.3-1.6-5.38-2.36Zm-4.44-1.2l2.2.98c-1.64,1.06-4.24,2.06-6.28,2.64-.42-.48-1.24-1.36-1.78-1.76,2.12-.4,4.5-1.1,5.86-1.86Zm-2.5-15.24h2.24c-.22,3.68-.9,6.26-4.66,7.72-.22-.56-.8-1.36-1.28-1.78,3.14-1.1,3.54-3.04,3.7-5.94Z"/>
  <path class="cls-11" d="m192.85,309.39l2.77.23-14.22,17.72-.43.54-.09.69-.58,4.3-8.75,8.49-.97.94.26,1.33,5.89,30.65.24,1.26,1.16.54,2.3,1.07-.2,4.9c-1.52.51-2.98,1.2-4.88,2.25-1.29.71-2.87,1.62-4.87,2.77-1.97,1.14-4.35,2.51-7.26,4.16-5.8,3.28-9.49,4.35-11.59,4.65-1.04.15-1.68.11-1.98.07-.08-.01-.15-.02-.18-.03l-1.42-.7-1.26,1.18h0s0,0,0,0l-.02.02-.07.06c-.06.06-.15.14-.26.25-.23.21-.56.52-.97.9-.66.6-1.51,1.38-2.44,2.21-.1-.2-.21-.43-.33-.69-.43-.91-.98-2.06-1.72-3.39-1.05-1.88-1.38-4.91-1.33-7.84.02-1.4.12-2.65.22-3.56.05-.45.1-.81.13-1.06.02-.12.03-.21.04-.27v-.06s.01-.01.01-.01h0s.62-3.72.62-3.72l-3.67.88h0s-.02,0-.02,0l-.07.02-.26.06c-.22.05-.54.13-.93.22-.78.18-1.83.42-2.91.67-.9.2-1.83.4-2.63.57,0-.86.02-1.9.08-2.98.07-1.45.18-2.91.28-4.02.03-.37.06-.69.08-.96l62.24-64.28Zm-50.87,91.32s0,0,.02-.01c-.01,0-.02.01-.02.01Zm1.67.3s.02.03.02.03,0,0-.02-.03Zm-13.37-17.64s0,0,0,0c0,.02,0,.02,0,0Z"/>
  <path class="cls-12" d="m250.29,381.32c1.31-.76,2.23-1.53,2.86-2.16,7.38.33,14.99-1.58,20.74-3.54,3.07-1.05,5.68-2.13,7.52-2.96.92-.41,1.65-.76,2.16-1.01.1-.05.18-.09.26-.13,7.28-.16,14.41-1.28,19.74-2.36,2.74-.56,5.03-1.1,6.63-1.51.8-.21,1.43-.38,1.87-.5.13-.04.23-.07.33-.09h14.51c.83,5.19,2.56,8.57,4.34,11.68.18.32.37.64.55.96,1.76,3.06,3.38,5.87,4.33,10.37.5,2.34.13,3.44-.18,3.93-.3.48-.85.85-1.79,1.06-.95.21-2.04.19-2.98.09-.45-.05-.83-.11-1.09-.17-.13-.02-.23-.05-.29-.06-.03,0-.05-.01-.06-.01h0s0,0,0,0h0s0,0,0,0h0l-1.41-.37-1.01,1.06-24,25-.55.57-.12.78-1.58,10.38-.15,1.01.6.83,17.63,24.36-6.89,17.59-.49,1.24.76,1.1,3.92,5.67.63.92,1.11.14,22.61,2.83.16.02h.16c16.3-.11,22.94,5,25.73,9.38,1.45,2.27,2.01,4.55,2.2,6.28.1.86.1,1.57.08,2.05,0,.24-.02.42-.04.53,0,.05-.01.09-.01.11h0s0,.01,0,.01h0s-.2,1.32-.2,1.32l.99.9,12,10.85.45.41.59.15c3.67.96,6.22,3.58,7.91,6.19.83,1.28,1.41,2.49,1.79,3.4l-15.81,14.19-2.34,2.1,2.57,1.81,5.6,3.95c-.05.73-.14,1.72-.35,2.83-.45,2.37-1.36,4.92-3.05,6.64-2.06,2.1-2.73,2.46-3.73,2.94-.19.09-.39.18-.61.28-1.31.6-3.23,1.49-6.75,3.72l-.28.18-.23.25c-3.09,3.38-5.33,4.24-6.51,4.45-.6.1-1.01.05-1.21,0-.07-.01-.11-.03-.14-.04l-1.89-1.07-1.31,1.86-6.57,9.37-64.18-19.29c-3.59-4.46-6.95-6.95-9.56-8.33-1.29-.68-2.38-1.09-3.21-1.33-2.24-5.81-3.87-9.49-4.97-11.76-.59-1.22-1.03-2.04-1.34-2.58-.04-.07-.07-.13-.1-.18l-.27-5.7,4.38-6.39.7-1.02-.39-1.17-2.37.78q2.37-.78,2.37-.79h0s0-.01,0-.01v-.02s-.02-.04-.02-.04c0-.03-.02-.05-.03-.09-.02-.07-.06-.14-.1-.23-.08-.18-.19-.4-.34-.67-.3-.54-.77-1.26-1.48-2.14-1.42-1.77-3.83-4.21-7.91-7.22l-.29-.21-.34-.12c-4.13-1.52-9.94-5.22-15.28-9.18-5.34-3.96-9.82-7.9-11.37-9.68-.81-.94-1.19-1.58-1.36-1.96l1.7-1.08-2.01-2.2-13.6-14.86-.74-.81h-3.89l-.6-6.48,3.26-2.46.99-.75v-10.48l9.29-7.98,1.35-1.16-.66-1.66c-1.75-4.43-4.48-6.43-7.14-7.06-.48-.11-.95-.18-1.38-.2l-.22-3.7,18.43-15.71,1.89-1.61-1.6-1.9-26.04-30.93,2.09-5.41,10.18,8.93.95.83,1.23-.26,11.75-2.54c5.9-.07,9.89-1.44,12.48-2.95Z"/>
  <path class="cls-8" d="m345.09,271.89l-12.22,29.68s-.34,8.47,0,8.47,7.57,9.54,4.99,27.37c-2.58,17.83-6.37,18.9-6.03,19.61.33.71,4.99,14.66,8.62,22.08,3.61,7.42,5.52,16.6,4.65,19.61l-14.99,4.77s-19.82,18.01-20.33,23.86l17.77,25.43-6.05,22.08s32.59,4.06,44.44,9.72c.24.12.47.24.71.34,1.56,0-.69-12.01,14.47-16.07,12.58-1.42,10.51-14.5,16.54-19.43,6.03-4.93,17.41-7.24,17.41-7.24,0,0,3.79-12.19-1.72-23.31-5.5-11.12,6.55-22.44,6.55-22.44v-9.36l-5.17-2.31,3.1-13.24s0-3.36-6.03-9.18c-6.03-5.82,3.61-12.53,3.61-12.53l17.74-16.44s.33-6.53-15.34-13.95l-10.33-6.19,2.58-29.15-12.91-.52s-13.96-10.78-21.2,0c0,0-17.05,5.11-24.65-11.67h-7.24"/>
  <g class="cls-1">
    <path class="cls-2" d="m332.87,301.57l-4.62-1.9-.34.82-.04.89,5,.2Zm7.57,77.53l4.5-2.19h0s-4.49,2.19-4.49,2.19Zm4.65,19.61l1.52,4.76,2.55-.81.74-2.57-4.8-1.38Zm-14.99,4.77l-1.52-4.76-1.04.33-.81.73,3.36,3.7Zm-20.33,23.86l-4.98-.44-.16,1.81,1.04,1.49,4.1-2.86Zm17.77,25.43l4.82,1.32.62-2.26-1.34-1.92-4.1,2.86Zm-6.05,22.08l-4.82-1.32-1.53,5.57,5.73.72.62-4.96Zm44.44,9.72l2.28-4.45-.06-.03-.06-.03-2.15,4.51Zm.71.34l-1.96,4.6.94.4h1.02v-5Zm14.47-16.07l-.56-4.97-.37.04-.36.1,1.29,4.83Zm33.95-26.67l.99,4.9,2.9-.59.88-2.83-4.78-1.48Zm4.83-45.75l3.42,3.64,1.58-1.48v-2.16h-5Zm0-9.36h5v-3.24l-2.96-1.32-2.04,4.57Zm-5.17-2.31l-4.87-1.14-.94,4.02,3.77,1.68,2.04-4.57Zm3.1-13.24l4.87,1.14.13-.56v-.58h-5Zm-2.42-21.71l2.86,4.1.29-.2.26-.24-3.4-3.67Zm17.74-16.44l3.4,3.67,1.49-1.38.1-2.03-4.99-.26Zm-15.34-13.95l-2.57,4.29.21.13.22.1,2.14-4.52Zm-10.33-6.19l-4.98-.44-.28,3.12,2.69,1.61,2.57-4.29Zm2.58-29.15l4.98.44.46-5.22-5.24-.21-.2,5Zm-12.91-.52l-3.06,3.96,1.26.97,1.59.06.2-4.99Zm-21.2,0l1.44,4.79,1.72-.51,1-1.49-4.15-2.79Zm-24.65-11.67l4.55-2.06-1.33-2.94h-3.23v5Zm-10.83-1.9l-12.23,29.68,9.25,3.81,12.22-29.68-9.25-3.81Zm-7.6,31.58l-5-.2h0s0,.02,0,.03c0,.02,0,.04,0,.07,0,.07,0,.16-.01.28,0,.24-.02.57-.03.98-.03.81-.06,1.89-.08,2.98-.02,1.07-.03,2.21-.02,3.11,0,.43.03.92.07,1.35.02.18.06.58.17,1.02.05.18.19.72.53,1.31.17.3,1.47,2.54,4.37,2.54v-10c1.42,0,2.5.59,3.17,1.14.62.51.97,1.05,1.13,1.34.33.57.45,1.05.48,1.17.05.19.07.33.08.38,0,.06.01.1.01.1,0,0,0-.04,0-.16,0-.11,0-.24-.01-.41-.01-.69,0-1.67.02-2.71.02-1.03.05-2.06.08-2.85.01-.39.02-.71.03-.94,0-.11,0-.2,0-.26,0-.03,0-.05,0-.07v-.02s0,0,0,0h0s0,0-5-.2Zm0,13.47c-1.27,0-2.17-.49-2.37-.6-.34-.18-.57-.36-.68-.45-.23-.18-.38-.34-.42-.38-.1-.11-.13-.15-.08-.09.08.11.27.38.53.82.51.88,1.22,2.31,1.88,4.28,1.3,3.92,2.37,9.98,1.2,18.08l9.9,1.43c1.41-9.72.16-17.35-1.6-22.66-.88-2.64-1.88-4.71-2.73-6.18-.42-.73-.84-1.35-1.2-1.83-.18-.23-.39-.5-.64-.76-.11-.12-.32-.33-.6-.55-.13-.11-.39-.3-.75-.49-.22-.12-1.13-.62-2.41-.62v10Zm.04,21.66c-1.25,8.62-2.74,12.82-3.68,14.8-.45.94-.79,1.43-1.01,1.73,0,.01-.41.54-.66.97-.25.44-1.41,2.51-.25,4.96l9.04-4.28c1.08,2.27-.04,4.16-.14,4.33-.1.17-.24.36.1-.11.48-.66,1.18-1.68,1.96-3.33,1.52-3.19,3.21-8.45,4.54-17.65l-9.9-1.43Zm-5.6,22.47c-.09-.2-.09-.22.13.4.16.45.38,1.07.65,1.84.54,1.53,1.28,3.59,2.12,5.87,1.66,4.51,3.81,10.06,5.74,14.02l8.98-4.39c-1.69-3.46-3.68-8.58-5.34-13.09-.82-2.22-1.54-4.24-2.08-5.76-.27-.75-.5-1.4-.67-1.88-.11-.31-.33-.93-.51-1.3l-9.04,4.28Zm8.64,22.12c1.62,3.33,2.88,7.12,3.63,10.38.37,1.63.6,3.05.69,4.15.1,1.24,0,1.64.03,1.5l9.61,2.77c.47-1.65.45-3.52.32-5.08-.14-1.7-.45-3.6-.9-5.57-.9-3.93-2.39-8.44-4.38-12.53l-8.99,4.37Zm7.63,12.66l-14.99,4.77,3.03,9.53,14.99-4.77-3.03-9.53Zm-13.47,9.54q-3.36-3.7-3.36-3.7s0,0,0,0c0,0,0,0,0,0,0,0,0,0-.01.01-.01,0-.03.02-.05.04-.04.04-.1.09-.18.16-.15.14-.37.34-.65.6-.56.52-1.35,1.26-2.3,2.17-1.9,1.81-4.45,4.3-7.03,6.99-2.56,2.67-5.23,5.62-7.32,8.34-1.04,1.36-2.02,2.75-2.77,4.09-.69,1.22-1.48,2.9-1.64,4.71l9.96.87c-.03.36-.1.19.4-.69.43-.76,1.09-1.74,1.98-2.89,1.77-2.3,4.15-4.95,6.61-7.51,2.44-2.55,4.88-4.92,6.71-6.67.91-.87,1.67-1.58,2.2-2.07.26-.25.47-.44.61-.56.07-.06.12-.11.16-.14.02-.02.03-.03.04-.03,0,0,0,0,0,0t0,0h0s0,0-3.36-3.7Zm-24.43,26.72l17.77,25.43,8.2-5.73-17.77-25.43-8.2,5.73Zm17.04,21.25l-6.05,22.08,9.64,2.64,6.05-22.08-9.64-2.64Zm-1.23,23.4l-.62,4.96h0s0,0,.01,0c.01,0,.04,0,.07,0,.06,0,.15.02.27.03.23.03.58.08,1.03.14.9.12,2.2.3,3.8.53,3.2.46,7.59,1.14,12.33,1.99,9.74,1.74,20.18,4.08,25.39,6.58l4.31-9.02c-6.64-3.17-18.42-5.69-27.94-7.39-4.88-.87-9.38-1.57-12.66-2.04-1.64-.24-2.98-.42-3.91-.55-.46-.06-.83-.11-1.08-.14-.12-.02-.22-.03-.29-.04-.03,0-.06,0-.08-.01,0,0-.02,0-.02,0,0,0,0,0,0,0h0s0,0-.62,4.96Zm42.16,14.17c.21.11.6.31,1.03.49l3.93-9.2s-.13-.06-.39-.2l-4.56,8.9Zm2.99.89c1.99,0,3.38-1.06,4.12-1.97.63-.77.92-1.55,1.05-1.91.25-.73.42-1.61.51-2.05.24-1.18.5-2.35,1.04-3.59.94-2.16,2.98-5.1,9.05-6.73l-2.59-9.66c-9.1,2.44-13.51,7.53-15.63,12.39-.99,2.27-1.41,4.36-1.66,5.56-.15.75-.18.83-.16.78,0-.02.18-.54.66-1.13.6-.73,1.82-1.7,3.62-1.7v10Zm15.03-16.1c4.09-.46,7.32-1.93,9.83-4.19,2.42-2.18,3.88-4.83,4.9-7.14.52-1.16.96-2.32,1.35-3.34.41-1.06.75-1.96,1.12-2.8.75-1.71,1.36-2.58,1.95-3.05l-6.33-7.74c-2.43,1.99-3.83,4.61-4.78,6.78-.48,1.1-.92,2.24-1.3,3.25-.4,1.04-.76,1.97-1.14,2.84-.78,1.76-1.54,2.95-2.46,3.77-.83.74-2.06,1.44-4.26,1.69l1.12,9.94Zm19.15-20.53c2.28-1.87,5.92-3.45,9.38-4.59,1.66-.55,3.15-.96,4.22-1.23.53-.14.96-.23,1.24-.3.14-.03.25-.05.32-.07.03,0,.06-.01.07-.01,0,0,.01,0,.01,0s0,0,0,0h0s0,0-.99-4.9q-.99-4.9-.99-4.9s0,0,0,0h0s0,0-.01,0c0,0-.02,0-.04,0-.03,0-.07.01-.12.02-.1.02-.25.05-.43.09-.36.08-.87.2-1.5.36-1.25.32-2.98.79-4.92,1.43-3.74,1.24-8.81,3.28-12.56,6.34l6.33,7.74Zm14.24-11.11q4.78,1.48,4.78,1.48s0,0,0,0c0,0,0,0,0,0,0,0,0-.01,0-.02,0-.01.01-.03.02-.05.01-.04.03-.09.05-.16.04-.13.08-.3.14-.52.11-.43.26-1.04.42-1.8.31-1.5.65-3.61.79-6.12.29-4.95-.16-11.73-3.43-18.33l-8.96,4.44c2.23,4.52,2.64,9.39,2.41,13.32-.11,1.94-.38,3.57-.61,4.7-.11.56-.22.99-.29,1.27-.04.14-.06.24-.08.29,0,.03-.01.05-.01.05t0,0s0,0,0,0c0,0,0,0,0,0,0,0,0,0,0,0t4.78,1.48Zm2.77-25.53c-1.69-3.42-.88-7.15,1.11-10.76.96-1.74,2.08-3.23,2.98-4.29.44-.52.82-.93,1.07-1.2.13-.13.22-.23.28-.28.03-.03.05-.05.06-.05,0,0,0,0,0,0,0,0,0,0,0,0,0,0,0,0,0,0,0,0,0,0,0,0t-3.43-3.64q-3.42-3.64-3.43-3.64s0,0,0,0h0s-.01.02-.02.02c-.01.01-.03.03-.05.04-.04.04-.08.08-.14.14-.12.11-.27.27-.47.47-.38.4-.91.96-1.51,1.67-1.19,1.41-2.74,3.44-4.1,5.92-2.66,4.83-5.12,12.32-1.31,20.02l8.96-4.44Zm7.06-20.22v-9.36h-10v9.36h10Zm-2.96-13.93l-5.16-2.3-4.08,9.13,5.17,2.3,4.07-9.13Zm-2.33,3.4l3.1-13.24-9.74-2.28-3.1,13.24,9.74,2.28Zm-1.77-14.38q5,0,5,0h0v-.03s0-.02,0-.04c0-.02,0-.05,0-.08,0-.05,0-.11,0-.17,0-.12-.02-.26-.03-.4-.03-.29-.09-.63-.18-1.02-.18-.78-.5-1.73-1.02-2.83-1.06-2.2-2.95-4.96-6.31-8.2l-6.94,7.2c2.68,2.58,3.8,4.41,4.25,5.34.23.47.29.72.3.75,0,.02,0-.02-.02-.1,0-.04,0-.1-.01-.17,0-.03,0-.07,0-.11,0-.02,0-.04,0-.06v-.05h0s0-.02,5-.02Zm-2.56-12.78c-.34-.33-.43-.52-.45-.56-.01-.03-.01-.04-.01-.06,0-.13.1-.6.65-1.39.52-.75,1.22-1.48,1.86-2.04.31-.27.57-.49.75-.62.09-.07.15-.12.19-.14.02-.01.03-.02.03-.02,0,0,0,0,0,0,0,0,0,0,0,0,0,0,0,0,0,0,0,0,0,0,0,0t-2.86-4.1q-2.86-4.1-2.86-4.1s0,0,0,0c0,0,0,0,0,0,0,0-.01,0-.02.01-.01,0-.03.02-.04.03-.03.02-.08.06-.13.09-.1.08-.24.18-.4.31-.33.25-.77.61-1.27,1.06-.98.87-2.31,2.19-3.45,3.85-1.11,1.61-2.3,3.92-2.4,6.68-.12,3,1.07,5.85,3.51,8.2l6.94-7.2Zm3.53-5.27l17.74-16.44-6.8-7.34-17.74,16.44,6.8,7.34Zm14.35-20.1q4.99.26,4.99.24h0s0-.03,0-.04c0-.02,0-.03,0-.05,0-.04,0-.07,0-.11,0-.08,0-.16,0-.26,0-.18-.02-.4-.04-.63-.05-.48-.16-1.05-.35-1.7-.38-1.31-1.1-2.88-2.36-4.6-2.51-3.43-7.11-7.38-15.44-11.32l-4.28,9.04c7.35,3.48,10.42,6.5,11.65,8.19.61.83.79,1.36.83,1.51.02.08.01.08,0-.01,0-.04-.01-.11-.01-.19,0-.04,0-.09,0-.14,0-.03,0-.05,0-.08,0-.01,0-.03,0-.04,0,0,0-.02,0-.02,0,0,0,0,0-.01t4.99.24Zm-12.77-18.24l-10.33-6.19-5.14,8.58,10.33,6.19,5.14-8.58Zm-7.92-1.45l2.58-29.15-9.96-.88-2.58,29.15,9.96.88Zm-2.19-34.59l-12.92-.52-.41,9.99,12.91.53.41-9.99Zm-13.12,4.47q3.05-3.96,3.05-3.96s0,0,0,0c0,0,0,0,0,0,0,0-.01,0-.02-.01-.01-.01-.03-.02-.05-.04-.04-.03-.1-.07-.17-.13-.14-.1-.33-.24-.57-.4-.48-.33-1.15-.77-1.98-1.26-1.63-.96-3.97-2.18-6.67-3-2.67-.82-6.02-1.36-9.47-.61-3.62.79-6.94,2.9-9.45,6.64l8.3,5.58c1.11-1.65,2.24-2.22,3.27-2.45,1.2-.26,2.7-.13,4.42.4,1.69.52,3.29,1.33,4.51,2.05.6.35,1.07.67,1.39.88.16.11.27.19.34.24.03.02.06.04.07.05,0,0,0,0,0,0,0,0,0,0,0,0,0,0,0,0,0,0,0,0,0,0,0,0t3.05-3.96Zm-21.2,0q-1.44-4.79-1.43-4.79s0,0,0,0c0,0,0,0,0,0,0,0,0,0,.01,0,0,0,0,0,0,0,0,0-.02,0-.06.02-.07.02-.19.05-.37.09-.35.08-.89.18-1.58.27-1.39.18-3.27.26-5.29-.06-3.83-.6-8.4-2.64-11.39-9.25l-9.11,4.12c4.6,10.17,12.36,13.97,18.95,15,3.19.5,6.05.36,8.1.1,1.03-.13,1.88-.29,2.49-.43.31-.07.56-.13.74-.18.09-.02.17-.05.23-.06.03,0,.06-.02.08-.02,0,0,.02,0,.03,0,0,0,0,0,.01,0,0,0,0,0,0,0t-1.43-4.79Zm-24.65-16.67h-7.24v10h7.24v-10Z"/>
  </g>
  <path class="cls-10" d="m276.84,62.23c1.06.01,1.9,0,2.56-.08.59-.07,1.21-.2,1.81-.49.65-.32,1.08-.75,1.41-1.14.18-.22.4-.54.53-.74.04-.06.07-.1.1-.14.16-.23.35-.48.63-.78.56-.6,1.58-1.51,3.6-2.75h0c4.06-2.51,6.18-2.64,7.02-2.53.01,0,.03,0,.04,0v8.33c-5.28,4.87-7.85,11.04-9.11,15.97-.67,2.61-.98,4.92-1.12,6.58-.07.83-.1,1.51-.12,1.98,0,.24,0,.43,0,.56v.21s0,.02,0,.02h0s0,0,2.5-.05l-2.5.06.02.96.65.7h0s0,0,0,0l.02.02.07.07c.06.07.15.17.27.3.24.26.58.64.99,1.12.83.95,1.93,2.27,3.04,3.75,1.12,1.48,2.22,3.08,3.05,4.58.87,1.57,1.32,2.79,1.4,3.6.2,2.04,1.26,3.86,2.53,5.37,1.29,1.54,2.97,2.96,4.75,4.23,3.57,2.54,7.86,4.68,11.21,5.97,1.89.73,4.57,1.24,7.32,1.61,2.81.38,5.91.64,8.78.82,2.87.18,5.54.28,7.49.34.98.03,1.77.05,2.32.06.24,0,.44,0,.58,0l10.76,2.61,12.66,13.18c-.05.36-.12.8-.2,1.34-.27,1.73-.72,4.41-1.47,8.26-3.34,8.39-4.74,16.81-5.31,23.12-.29,3.19-.37,5.86-.37,7.74,0,.94.01,1.68.03,2.2,0,.26.02.46.02.6v.05s0,.08,0,.11v.05s0,.01,0,.01h0s2.25,37.47,2.25,37.47l.02.35.12.33,2.36-.83q-2.36.83-2.36.83h0s0,0,0,0h0s0,.03,0,.03c0,.01.01.03.02.05v.03c.04.07.07.16.12.29.09.24.23.6.42,1.04.37.89.93,2.15,1.69,3.7,1.53,3.09,3.89,7.3,7.24,11.85l.07.09.08.09c5.15,5.79,10.3,7.63,14.35,7.84,1.86.1,3.43-.15,4.58-.45l16.68,26.62v6.46l-5.75-.21-6.38-6.41-.68-.68-.96-.05c-5.65-.31-10.52,2.47-13.79,5.03-1.6,1.25-2.89,2.51-3.81,3.49-.33-.25-.7-.53-1.11-.83-1.79-1.35-4.2-3.21-6.69-5.23-2.49-2.02-5.03-4.18-7.09-6.15-1.87-1.78-3.12-3.2-3.7-4.11-.49-8.22-3.7-17.9-6.71-25.41-1.56-3.89-3.09-7.27-4.23-9.68-.57-1.21-1.05-2.17-1.38-2.84-.17-.33-.3-.59-.39-.77-.04-.09-.08-.16-.1-.2l-.03-.05h0s0-.02,0-.02h0s0,0-2.21,1.16l2.21-1.16-.42-.8-.83-.35-20.89-8.69-.46-.19h-10.28l-21.89-23.68c.04-.25.09-.54.13-.86.2-1.31.43-3.14.59-5.25.31-4.15.34-9.61-1-14.21-.71-2.44-1.85-4.4-3.48-5.89-1.62-1.48-3.56-2.35-5.65-2.87-3.54-.89-7.98-.87-12.75-.86-.64,0-1.28,0-1.93,0-5.45,0-8.94-.81-11.31-1.82-2.35-1-3.77-2.26-5.08-3.52,0,0-.06-.06-.18-.23-.11-.17-.24-.39-.39-.69-.3-.59-.62-1.36-.96-2.27-.68-1.82-1.34-4.05-1.94-6.25-.59-2.19-1.1-4.31-1.47-5.88-.18-.78-.33-1.43-.42-1.88-.05-.22-.09-.4-.11-.52l-.03-.13v-.03s0,0,0,0h0s-.12-.58-.12-.58l-.37-.46-1.96,1.55q1.96-1.55,1.96-1.55h0s0,0,0,0h0s-.02-.03-.02-.03c-.01-.01-.03-.04-.05-.06-.02-.02-.04-.04-.06-.07-.03-.04-.07-.08-.11-.12-.14-.16-.33-.38-.58-.64-.49-.51-1.2-1.2-2.08-1.89-1.7-1.33-4.36-2.93-7.52-2.93-1.5,0-3.36.37-5.15.83-1.84.47-3.81,1.09-5.61,1.7-1.8.61-3.44,1.22-4.63,1.68-.15.06-.29.11-.42.16-.63-.6-1.48-1.39-2.5-2.29-2.24-1.96-5.34-4.46-8.71-6.51-3.05-1.86-4.55-3.25-5.33-4.15-.38-.45-.61-.8-.77-1.06-.07-.12-.12-.22-.19-.34-.02-.03-.03-.06-.05-.09h0s0-.02,0-.02c0-.31,0-.76.03-1.33.06-1.19.18-2.75.32-4.32.14-1.56.29-3.1.42-4.25.06-.53.1-.98.14-1.31l1.56-2.35,15.15-.83,1.11-.06.7-.86,5.87-7.27.59-.73-.04-.94-1.03-26.27-.03-.79-.48-.63-5.53-7.27-.78-1.03-1.29.04-20.07.68-7.5-6.67c-.04-.43-.1-.98-.15-1.62-.14-1.56-.31-3.64-.42-5.75-.11-2.13-.16-4.21-.08-5.8.03-.67.09-1.19.15-1.55,1.38-.7,4.37-2.07,8.36-3.84,4.68-2.07,10.54-4.61,16.28-7.07,5.74-2.46,11.35-4.85,15.52-6.61,2.09-.88,3.82-1.62,5.02-2.12.6-.25,1.08-.45,1.4-.59l.37-.15.09-.04h.02s0-.01,0-.01h0s0,0-.97-2.3l.97,2.3.71-.3.42-.65,2.04-3.15c7.64-3.78,11.91-3.01,14.11-1.89,1.19.6,1.98,1.41,2.47,2.05.25.32.41.6.51.78.05.09.08.16.09.19,0,0,0,.01,0,.02l.02.06.04.08,7.32,15.04-28.39,27.14-2.17,2.07,2.43,1.76,10.02,7.27.73.53.9-.06,9.87-.66,13.75,9.07-1.35,6.12-1.12,5.07,4.66-2.29,6.58-3.23,3.08,2.28,3.99,2.95v-12.85l-.86-.75-3.59-3.12.23-7.86Z"/>
  <path class="cls-9" d="m406.39,261.06l4.97-8.07h9.51v-11.64s.93-3.91,5.21-3.79c4.28.12,12.39,1.18,17.6,7.83,0,0,4.52,1.3,13.33-3.44,8.81-4.75,7.66-6.11,15.54-7.48,0,0,2.21,0,3.7-7.72,1.49-7.72,10.9-26.23,12.87-30.87,1.97-4.65,2.67-14.24-1.15-23.62-3.82-9.37-3-17.44-3-17.44,0,0-6.03-1.67-12.63-10.21l8.81-21.84s4.64-7.83,4.52-16.26c-.12-8.44.82-8.91.7-9.25-.12-.35-10.9-20.3-10.9-20.3l.58-5.93-18.54-12.94.24-15.2s-2.33,1.06-6.96-2.02c-4.63-3.08-10.3-2.38-10.3-2.38l-.46,19.58-10.42,5.93s-6.15,11.17-19,16.02c-3.48,1.9-8,4.63-8,4.63l-12.51-5.46-4.52,14.83s-2.79,6.77-7.06,8.78l-11.24-.12s-1.97,4.16-6.61,7.13c-4.63,2.97-3.82,8.78-3.82,8.78l6.6,5.34s6.15,1.77,5.91,14.37c-.22,5.26-1.73,10.92-1.73,16.85s-6.03,15.55-6.03,15.55l2.9,4.16s-9.27,13.29,2.03,35.19c0,0-1.35,14.77,8.87,22.44,0,0,10.09-.71,11.3,0,1.21.71,19.75,28.55,19.75,28.55l-.06.04Z"/>
  <g class="cls-13">
    <path class="cls-2" d="m406.39,261.06l-4.26-2.62,7.08,6.75-2.82-4.13Zm4.97-8.07v-5h-2.79l-1.46,2.38,4.26,2.62Zm9.51,0v5h5v-5h-5Zm0-11.64l-4.86-1.16-.14.57v.59h5Zm22.82,4.03l-3.93,3.09,1,1.27,1.55.45,1.39-4.8Zm28.87-10.92v-5h-.43l-.42.07.85,4.93Zm12.41-79.65l4.97.5.42-4.19-4.06-1.13-1.33,4.82Zm-12.63-10.21l-4.64-1.87-1.07,2.66,1.76,2.27,3.95-3.06Zm8.81-21.84l-4.3-2.55-.19.33-.14.35,4.64,1.87Zm-5.69-45.81l-4.98-.48-.15,1.52.73,1.34,4.4-2.38Zm.58-5.93l4.98.48.28-2.91-2.4-1.67-2.86,4.1Zm-18.54-12.94l-5-.08-.04,2.66,2.18,1.52,2.86-4.1Zm.24-15.2l5,.08.12-7.9-7.19,3.28,2.07,4.55Zm-17.27-4.4l-.61-4.96-4.29.52-.1,4.32,5,.12Zm-.46,19.58l2.47,4.35,2.46-1.4.07-2.83-5-.12Zm-10.42,5.93l-2.47-4.35-1.23.7-.68,1.24,4.38,2.41Zm-19,16.02l-1.77-4.68-.32.12-.3.16,2.39,4.39Zm-8,4.63l-2,4.58,2.37,1.04,2.21-1.34-2.59-4.28Zm-12.51-5.46l2-4.58-5.15-2.25-1.64,5.37,4.78,1.46Zm-4.52,14.83l4.62,1.9.09-.22.07-.23-4.78-1.46Zm-7.06,8.78l-.05,5h1.15s1.04-.48,1.04-.48l-2.13-4.52Zm-11.24-.12l.05-5-3.2-.03-1.37,2.89,4.52,2.14Zm-10.42,15.92l-4.95.69.27,1.95,1.53,1.24,3.14-3.89Zm6.6,5.34l-3.14,3.89.79.64.97.28,1.39-4.81Zm5.91,14.37l4.99.21v-.06s0-.06,0-.06l-5-.09Zm-7.76,32.4l-4.24-2.66-1.76,2.81,1.9,2.71,4.1-2.86Zm2.9,4.16l4.1,2.86,2-2.86-2-2.86-4.1,2.86Zm2.03,35.19l4.98.46.13-1.45-.67-1.3-4.44,2.29Zm8.87,22.44l-3,4,1.49,1.12,1.86-.13-.35-4.99Zm31.05,28.55l2.82,4.13,4.08-2.79-2.74-4.11-4.16,2.77Zm4.2,2.66l4.97-8.07-8.51-5.25-4.97,8.07,8.51,5.25Zm.72-5.69h9.51v-10h-9.51v10Zm14.51-5v-11.64h-10v11.64h10Zm-5-11.64q4.86,1.16,4.86,1.17s0,0,0,0c0,0,0,0,0,0,0,0,0,.01,0,.02,0,.01,0,.02,0,.03,0,.02-.01.04-.01.05,0,.03-.02.05-.02.06,0,.02,0,.02,0,0,.03-.06.06-.12.09-.16.02-.03,0,0-.06.03-.08.04-.05,0,.21,0l.29-10c-3.96-.11-6.68,1.75-8.26,3.73-.74.92-1.2,1.83-1.49,2.5-.14.34-.25.64-.33.88-.04.12-.07.22-.09.31-.01.04-.02.08-.03.12,0,.02,0,.03-.01.05,0,0,0,.01,0,.02,0,0,0,0,0,.01,0,0,0,0,0,0t4.86,1.17Zm5.07,1.21c3.92.11,10.04,1.1,13.82,5.91l7.87-6.17c-6.65-8.48-16.76-9.6-21.4-9.74l-.29,10Zm17.75,2.83q-1.39,4.8-1.38,4.81s0,0,0,0c0,0,.01,0,.01,0,.01,0,.02,0,.03,0,.02,0,.04.01.07.02.05.01.1.03.15.04.11.03.24.06.4.08.3.06.68.11,1.13.15.9.08,2.08.09,3.54-.09,2.92-.35,6.85-1.43,11.74-4.07l-4.74-8.8c-3.92,2.11-6.65,2.75-8.19,2.94-.78.09-1.27.07-1.49.05-.11,0-.16-.02-.14-.01.01,0,.04,0,.08.02.02,0,.05.01.08.02.01,0,.03,0,.05.01,0,0,.02,0,.02,0,0,0,0,0,.01,0,0,0,0,0,0,0t-1.38,4.81Zm15.7.96c4.5-2.43,7.1-4.37,8.37-5.15,1.11-.68,2.14-1.2,5.65-1.8l-1.71-9.85c-4.37.76-6.7,1.61-9.18,3.14-2.32,1.43-3.56,2.54-7.87,4.87l4.74,8.8Zm13.17-11.88c0,5,0,5,.02,5h.05s.05,0,.07,0c.05,0,.1,0,.15,0,.1,0,.2-.01.31-.03.21-.02.43-.06.67-.12.47-.11.95-.29,1.43-.54.98-.51,1.84-1.27,2.57-2.24,1.41-1.85,2.54-4.64,3.35-8.85l-9.82-1.9c-.68,3.52-1.41,4.58-1.47,4.67,0,0,.21-.28.73-.55.25-.13.55-.25.89-.33.17-.04.34-.07.52-.09.09-.01.18-.02.27-.02.04,0,.09,0,.14,0,.02,0,.05,0,.07,0h.05s.02,0,.02,5Zm8.61-6.77c.61-3.18,3.06-9.18,5.9-15.48,2.63-5.83,5.68-12.07,6.66-14.39l-9.21-3.9c-.99,2.33-3.63,7.66-6.57,14.18-2.73,6.04-5.73,13.15-6.61,17.7l9.82,1.9Zm12.57-29.87c2.55-6.01,3.14-16.99-1.13-27.46l-9.26,3.77c3.38,8.28,2.57,16.49,1.18,19.78l9.21,3.9Zm-1.13-27.46c-1.68-4.12-2.34-7.96-2.58-10.78-.12-1.4-.13-2.53-.12-3.28,0-.38.02-.65.03-.82,0-.09,0-.14.01-.17,0-.01,0-.02,0-.02,0,0,0,0,0,0,0,0,0,0,0,0h0s0,0-4.97-.49q-4.98-.5-4.98-.5h0s0,0,0,.01c0,0,0,0,0,.02,0,.01,0,.03,0,.04,0,.03,0,.07,0,.12,0,.09-.02.22-.03.37-.02.31-.04.73-.05,1.26-.02,1.05,0,2.53.15,4.32.3,3.57,1.14,8.44,3.29,13.7l9.26-3.77Zm-7.63-15.56q1.33-4.82,1.34-4.82s0,0,0,0c0,0,0,0,0,0,0,0,.01,0,.02,0,0,0,.02,0,.03,0,.01,0,.02,0,.03,0,0,0,0,0-.04-.01-.07-.02-.22-.08-.44-.17-.44-.19-1.17-.55-2.1-1.14-1.86-1.18-4.58-3.35-7.52-7.15l-7.91,6.12c3.66,4.74,7.26,7.68,10.06,9.46,1.4.89,2.59,1.49,3.49,1.88.45.19.82.34,1.11.44.14.05.27.09.36.12.05.01.09.03.13.04.02,0,.04.01.05.02,0,0,.01,0,.02,0,0,0,0,0,.01,0,0,0,0,0,0,0t1.34-4.82Zm-8-8.34l8.81-21.84-9.27-3.74-8.81,21.84,9.27,3.74Zm4.18-23.72q4.3,2.55,4.3,2.55s0,0,0,0c0,0,0,0,0,0,0,0,0,0,0-.01,0,0,.01-.02.02-.03.02-.03.04-.06.06-.1.05-.08.11-.2.19-.34.15-.28.37-.68.61-1.17.49-.99,1.14-2.38,1.78-4.07,1.26-3.32,2.61-8.05,2.54-13.14l-10,.14c.05,3.35-.86,6.75-1.89,9.45-.5,1.32-1.01,2.41-1.38,3.15-.18.37-.33.65-.43.83-.05.09-.09.15-.11.19-.01.02-.02.03-.02.03t0,0s0,0,0,0c0,0,0,0,0,0,0,0,0,0,0,0t4.3,2.55Zm9.52-16.33c-.06-4.07.14-5.96.28-6.76.06-.35.1-.49.12-.54,0-.02.01-.03.02-.06,0-.02.02-.06.03-.11.02-.07.08-.25.12-.47.1-.46.3-1.56-.15-2.87l-9.46,3.26c-.42-1.22-.23-2.23-.15-2.56.04-.19.12-.43.03-.13-.12.39-.28.96-.43,1.83-.27,1.63-.48,4.19-.42,8.56l10-.14Zm.42-10.81c-.07-.2-.14-.35-.15-.39-.03-.06-.05-.11-.07-.14-.03-.06-.06-.12-.08-.16-.04-.08-.09-.17-.13-.26-.1-.19-.23-.43-.38-.73-.31-.59-.75-1.41-1.26-2.37-1.03-1.92-2.39-4.46-3.75-6.97-1.36-2.52-2.71-5.02-3.72-6.9-.51-.94-.93-1.72-1.22-2.27-.15-.27-.26-.49-.34-.63-.04-.07-.07-.13-.09-.17-.01-.02-.02-.03-.02-.04,0,0,0,0,0-.01,0,0,0,0,0,0h0s0,0-4.4,2.38q-4.4,2.38-4.4,2.38s0,0,0,0c0,0,0,0,0,0,0,0,0,0,0,.01,0,0,.01.02.02.04.02.04.05.09.09.17.08.15.2.36.34.63.29.55.72,1.33,1.22,2.26,1.01,1.88,2.36,4.38,3.72,6.89,1.35,2.51,2.71,5.04,3.74,6.95.51.96.94,1.76,1.24,2.32.15.29.26.5.34.65.04.07.06.11.07.13.1.19-.08-.14-.21-.51l9.46-3.26Zm-10.65-18.18l.58-5.93-9.95-.97-.58,5.93,9.95.97Zm-1.54-10.51l-18.54-12.94-5.72,8.2,18.54,12.94,5.72-8.2Zm-16.4-8.76l.24-15.2-10-.16-.24,15.2,10,.16Zm-4.76-15.28q-2.07-4.55-2.06-4.55s0,0,0,0c0,0,0,0,.02,0,.01,0,.02,0,.03-.01.02,0,.04-.02.06-.03.04-.02.08-.03.12-.05.08-.03.15-.05.21-.07.13-.04.23-.06.31-.08.16-.03.19-.01.07-.02-.22-.02-1.2-.18-2.97-1.35l-5.53,8.33c2.86,1.9,5.36,2.75,7.47,2.97,1.05.11,1.95.05,2.69-.08.37-.07.69-.15.96-.23.14-.04.26-.09.38-.13.06-.02.11-.04.16-.06.02-.01.05-.02.07-.03.01,0,.02-.01.03-.02,0,0,.01,0,.02,0,0,0,0,0,0,0t-2.06-4.55Zm-4.2-6.18c-3.22-2.14-6.66-2.89-9.13-3.15-1.26-.13-2.34-.15-3.12-.12-.39.01-.72.03-.96.05-.12,0-.22.02-.3.03-.04,0-.07,0-.1.01-.01,0-.03,0-.04,0,0,0-.01,0-.02,0,0,0,0,0,0,0,0,0,0,0,0,0t.6,4.96q.61,4.96.6,4.96s0,0,0,0c0,0,0,0,0,0,0,0,0,0,0,0,0,0-.01,0-.01,0,0,0,0,0,0,0,0,0,.03,0,.08,0,.09,0,.24-.02.45-.02.42-.01,1.05,0,1.79.07,1.53.16,3.24.6,4.65,1.54l5.53-8.33Zm-18.07,1.66l-.46,19.58,10,.23.46-19.58-10-.23Zm2.07,15.35l-10.42,5.93,4.94,8.69,10.42-5.93-4.94-8.69Zm-7.95,10.28q-4.38-2.41-4.38-2.41s0,0,0,0c0,0,0,0,0,0,0,0,0,0,0,0,0,0,0,0,0,0,0,0-.01.02-.03.04-.03.05-.08.14-.15.26-.15.24-.39.62-.72,1.1-.67.96-1.69,2.32-3.08,3.82-2.79,3.02-6.92,6.47-12.41,8.54l3.53,9.36c7.36-2.78,12.73-7.33,16.22-11.11,1.76-1.9,3.07-3.64,3.96-4.92.45-.64.79-1.18,1.02-1.56.12-.19.21-.35.28-.47.03-.06.06-.11.08-.14.01-.02.02-.04.03-.05,0,0,0-.01.01-.02,0,0,0,0,0,0,0,0,0,0,0,0t-4.38-2.41Zm-21.39,11.63c-1.81.99-3.87,2.18-5.45,3.1-.79.47-1.48.87-1.96,1.16-.24.15-.44.26-.57.34-.07.04-.12.07-.16.09-.02.01-.03.02-.04.02,0,0,0,0-.01,0,0,0,0,0,0,0,0,0,0,0,0,0h0s0,0,2.59,4.28l2.59,4.28h0s0,0,0,0c0,0,0,0,0,0,0,0,.02-.01.04-.02.03-.02.08-.05.14-.09.13-.08.31-.19.55-.33.47-.28,1.13-.67,1.9-1.13,1.55-.91,3.49-2.03,5.16-2.94l-4.78-8.78Zm-3.61,4.43l-12.51-5.46-4,9.17,12.51,5.46,4-9.17Zm-19.3-2.33l-4.52,14.83,9.57,2.91,4.52-14.83-9.57-2.91Zm.27,16.29q-4.62-1.9-4.62-1.91h0s0,0,0,0c0,0,0,0,0,0,0,0,0,0,0,0,0,0,0,0,0,.02-.01.03-.03.08-.06.15-.06.14-.16.35-.3.63-.27.55-.67,1.29-1.16,2.08-1.12,1.77-2.25,2.93-3.04,3.3l4.27,9.04c3.49-1.64,5.89-4.88,7.23-7,.73-1.16,1.3-2.23,1.69-3.01.19-.39.35-.72.45-.96.05-.12.1-.22.13-.29.02-.04.03-.07.04-.09,0-.01.01-.02.01-.03,0,0,0,0,0-.01,0,0,0,0,0,0,0,0,0,0,0,0t-4.62-1.91Zm-7.01,3.78l-11.24-.12-.11,10,11.24.12.11-10Zm-11.29,4.88q-4.52-2.14-4.52-2.14s0,0,0,0c0,0,0,0,0,0,0,0,0,0,0,0,0,0,0-.01,0-.01,0,0,0-.01,0-.01,0,0,0,.01-.02.04-.03.05-.08.16-.17.3-.17.29-.46.74-.86,1.27-.81,1.07-2.05,2.4-3.76,3.5l5.4,8.42c2.93-1.88,4.99-4.12,6.32-5.87.67-.88,1.17-1.66,1.51-2.24.17-.29.31-.53.4-.72.05-.09.09-.17.12-.23.02-.03.03-.06.04-.08,0-.01.01-.02.01-.03,0,0,0,0,0-.01,0,0,0,0,0,0,0,0,0,0,0,0t-4.52-2.14Zm-9.31,2.92c-3.8,2.44-5.3,6.04-5.84,8.71-.27,1.33-.34,2.51-.33,3.36,0,.43.02.79.05,1.07.01.14.02.25.03.34,0,.05.01.09.01.12,0,.02,0,.03,0,.05,0,0,0,.01,0,.02,0,0,0,0,0,0,0,0,0,0,0,0t4.95-.69q4.95-.7,4.95-.69h0s0,0,0,.01c0,0,0,0,0,.01,0,0,0,.02,0,.02,0,.01,0,.02,0,.02,0,0,0,0,0-.03,0-.06-.01-.17-.01-.33,0-.33.02-.79.12-1.28.2-.98.62-1.78,1.45-2.31l-5.4-8.42Zm-4.26,16.88l6.6,5.34,6.29-7.78-6.6-5.34-6.29,7.78Zm9.75,1.45q-1.39,4.81-1.39,4.8s0,0,0,0c0,0-.01,0-.02,0-.01,0-.02,0-.03,0-.02,0-.04-.01-.06-.02-.04-.01-.07-.02-.1-.03-.06-.02-.1-.04-.12-.05-.05-.02-.04-.02.01.01.1.06.4.27.76.76.69.92,1.98,3.35,1.87,8.82l10,.19c.14-7.12-1.53-11.88-3.86-14.99-1.14-1.53-2.37-2.55-3.42-3.22-.52-.33-.99-.57-1.37-.73-.19-.08-.36-.15-.51-.2-.07-.03-.14-.05-.2-.07-.03-.01-.06-.02-.09-.03-.01,0-.03,0-.04-.01,0,0-.01,0-.02,0,0,0,0,0,0,0t-1.39,4.8Zm.91,14.16c-.1,2.31-.48,4.73-.9,7.67-.41,2.82-.83,6.03-.83,9.39h10c0-2.57.33-5.16.73-7.97.39-2.69.87-5.73.99-8.68l-9.99-.41Zm-1.73,17.06c0,1.72-1.02,4.69-2.52,7.84-.69,1.44-1.39,2.72-1.91,3.64-.26.46-.48.82-.62,1.07-.07.12-.13.21-.17.27-.02.03-.03.05-.04.06,0,0,0,0,0,.01t0,0h0s0,0,0,0t4.24,2.65q4.24,2.65,4.24,2.65s0,0,0,0c0,0,0,0,0,0,0,0,0,0,0,0,0,0,.01-.02.02-.03.01-.03.04-.06.06-.1.05-.09.13-.21.22-.36.18-.3.44-.74.74-1.27.61-1.07,1.42-2.56,2.23-4.27,1.51-3.14,3.51-7.95,3.51-12.16h-10Zm-5.13,18.41l2.9,4.16,8.2-5.73-2.9-4.16-8.2,5.73Zm7,1.29q-4.1-2.86-4.1-2.86s0,0,0,0c0,0,0,0,0,.01,0,0-.01.02-.02.03-.01.02-.03.05-.05.07-.04.06-.08.13-.14.21-.1.17-.24.39-.4.66-.31.55-.71,1.31-1.13,2.28-.85,1.94-1.79,4.71-2.31,8.22-1.06,7.1-.38,16.96,5.75,28.84l8.89-4.58c-5.17-10.03-5.5-17.76-4.75-22.78.38-2.54,1.05-4.47,1.59-5.7.27-.62.51-1.07.66-1.33.08-.13.13-.22.15-.26.01-.02.02-.03.01-.02,0,0,0,0,0,.02,0,0,0,0-.01.01,0,0,0,0,0,0,0,0,0,0,0,0t-4.1-2.85Zm2.03,35.19q-4.98-.46-4.98-.45h0s0,0,0,.01c0,0,0,.01,0,.02,0,.02,0,.04,0,.06,0,.05,0,.11-.01.19-.01.15-.02.36-.03.62-.02.51-.04,1.22-.02,2.09.04,1.73.21,4.12.75,6.8,1.07,5.29,3.7,12.25,10.17,17.1l6-8c-3.75-2.81-5.56-7.06-6.37-11.08-.4-1.97-.53-3.75-.55-5.04-.01-.64,0-1.14.01-1.47,0-.16.01-.28.02-.35,0-.03,0-.06,0-.06t0,0h0s0,0,0,.01h0s0,0-4.98-.45Zm8.87,22.44q.35,4.99.35,4.99h0s0,0,0,0c0,0,.01,0,.02,0,.02,0,.04,0,.08,0,.07,0,.17-.01.31-.02.27-.02.65-.04,1.12-.07.94-.05,2.2-.12,3.48-.16,1.3-.04,2.55-.06,3.51-.03.49.01.81.04.98.06.09.01.06.01-.05-.01-.04,0-.48-.11-1.03-.43l5.07-8.62c-.7-.41-1.37-.59-1.69-.67-.39-.09-.76-.15-1.06-.19-.61-.08-1.28-.11-1.91-.13-1.27-.04-2.77-.01-4.14.03-1.39.05-2.73.12-3.72.17-.5.03-.91.05-1.2.07-.14,0-.26.02-.34.02-.04,0-.07,0-.09,0-.01,0-.02,0-.02,0h-.01s0,0,.35,4.99Zm8.77,4.31c-.39-.23-.64-.45-.71-.52-.11-.09-.17-.16-.2-.19-.04-.05-.04-.05.02.03.12.15.33.41.62.8.58.77,1.37,1.86,2.31,3.21,1.88,2.67,4.3,6.19,6.68,9.71,2.39,3.51,4.74,7.01,6.49,9.62.88,1.31,1.61,2.4,2.11,3.16.25.38.45.68.59.88.07.1.12.18.15.23.02.03.03.05.04.06,0,0,0,.01.01.02,0,0,0,0,0,0,0,0,0,0,0,0t4.16-2.77q4.16-2.77,4.16-2.77h0s0,0,0,0c0,0,0,0,0-.02,0-.01-.02-.03-.04-.06-.04-.05-.09-.13-.16-.23-.14-.21-.34-.51-.59-.89-.51-.76-1.24-1.86-2.12-3.17-1.76-2.63-4.12-6.14-6.52-9.67-2.4-3.53-4.85-7.1-6.78-9.85-.96-1.37-1.82-2.56-2.49-3.45-.33-.44-.65-.85-.93-1.19-.14-.17-.31-.36-.49-.56-.07-.07-.54-.58-1.24-.99l-5.07,8.62Zm19.47,20.11l-.06.04,5.64,8.26.06-.04-5.64-8.26Z"/>
  </g>
  <path class="cls-11" d="m91.99,242.87l-.14-.21-.18-.18-.02-.02-.36-.37-.47-.2-.96,2.31c.96-2.31.95-2.31.95-2.31h0s-.02-.01-.02-.01h-.01s-.02-.01-.03-.02c-.01,0-.03,0-.04-.01-.02,0-.03-.01-.05-.02-.06-.02-.13-.04-.19-.06-.14-.04-.29-.06-.45-.08-.33-.03-.69,0-1.07.08-.75.18-1.48.59-2.18,1.22-1.36,1.21-2.97,3.52-4.92,7.87-1.77,3.96-3.41,5.53-4.32,6.13-.12.08-.24.15-.34.2l-5.28-4.4-.57-.48-.74-.09-7.81-.92-14.23-21.87c.59-.69,1.34-1.57,2.09-2.48.83-1.01,1.69-2.08,2.35-2.99.33-.45.64-.9.88-1.3.12-.2.25-.44.35-.69.08-.18.28-.66.28-1.25v-22.68l-.4-.62-3.15-4.84,28.92-35.05.57-.69v-.88s0-.03,0-.05c0-.06,0-.17.02-.35.02-.34.06-.92.16-1.81.18-1.78.55-4.79,1.3-9.64.32-2.07.97-3.34,1.72-4.2.77-.88,1.8-1.52,3.22-2.06,1.36-.52,2.9-.89,4.72-1.33.13-.03.25-.06.38-.09,1.93-.47,4.1-1.01,6.27-1.88.13-.05.27-.11.4-.16,1.73-.69,3.18-1.27,4.29-1.88,1.31-.72,2.35-1.59,3.12-2.94.68-1.22,1.04-2.68,1.38-4.3.14-.69.29-1.47.45-2.33.03-.19.07-.38.11-.57.21-1.1.45-2.35.75-3.79,1.32-6.34.48-11.57-.71-15.23-.59-1.83-1.28-3.26-1.82-4.26-.27-.5-.51-.89-.69-1.16-.04-.07-.08-.12-.12-.18l-22.76-56.51,13.08-6.65,7.93-.78h.08s.08-.02.08-.02c14.21-2.3,32.1-1.19,46.57.54,7.21.86,13.51,1.87,18.01,2.67,1.96.34,3.57.65,4.77.88l-2.56,13.33-.25,1.29.92.94,19.61,20,2.13,2.18,1.72-2.52,2.87-4.22h8.82l2.15,2.31-1.09,19.49-2.07,1.82c-.32,0-.72-.02-1.22-.03-1.72-.02-4.64-.02-9.5.07-5.07.1-8.14,1.29-9.67,3.4-.77,1.06-.99,2.15-1,2.98,0,.27.02.52.04.73l-3.7,19.17-.25,1.29.91.94,3.54,3.63c3.55,4.29,7.33,6.58,10.28,7.8,1.48.61,2.75.95,3.67,1.13.13.02.25.05.36.07.21.27.48.59.8.97,1.05,1.23,2.74,3.1,5.37,5.71,1.47,1.46,2.98,2.5,4.64,3.03,1.69.54,3.32.49,4.89.14,1.51-.33,3.07-.96,4.64-1.62.36-.15.72-.31,1.09-.46,1.31-.56,2.7-1.16,4.31-1.76,2.02-.76,3.36-1.09,4.21-1.2.09-.01.18-.02.26-.03l2.19,5.22c0,.07.01.16.02.25.04.44.11,1.07.23,1.83.24,1.52.71,3.61,1.59,5.93,1.77,4.64,5.25,10.28,12.07,13.91,6.65,3.55,13.78,4.28,19.14,4.16,2.7-.06,4.99-.33,6.61-.59.46-.07.86-.15,1.21-.21l2.02,2.07-1.21,12.37c-2.24,3.31-3.94,5.38-5.19,6.66-1.38,1.4-1.99,1.58-1.99,1.57.07-.02.32-.04.63.09.29.12.45.31.53.42.07.1.09.16.1.18h0s0,.03.01.05c0,.01,0,.03,0,.04v.03s0,.02,0,.02h0s0,.01-.04.02l-4.93.38v14.35l.99.75,18.3,13.93-2.18,5.9-.65,1.76,1.38,1.02s.01.01.02.02c.08.11.27.39.48.92.42,1.06.91,3.16.7,6.91v.02s0,.02,0,.02c-.25,6.63,1.44,11.31,3.31,14.37.93,1.52,1.88,2.62,2.63,3.36.1.1.2.19.29.28v11.33l-7.85,4.67-27.84-5.7-1.86-.38-.86,1.7c-.96,1.89-2.39,2.95-3.7,3.57-.66.31-1.28.5-1.77.61-.24.06-.45.09-.6.11-.13.02-.2.02-.22.02t0,0c-.41,0-.77.11-.84.13h0c-.14.04-.29.1-.43.14-.28.1-.62.23-1.01.39-.78.32-1.82.76-3.03,1.28-2.41,1.05-5.54,2.44-8.62,3.83-3.09,1.39-6.14,2.78-8.42,3.82-1.14.52-2.09.95-2.76,1.26l-.77.35-.2.09-.05.02h-.01s0,0,0,0h0l1.04,2.27-1.04-2.27-.13.06-.12.07h0s-.03.02-.03.02c-.03.01-.06.04-.11.07-.05.03-.12.07-.2.12-.07.04-.16.09-.26.15-.4.23-.98.55-1.68.92-1.41.74-3.28,1.64-5.19,2.36-1.96.73-3.74,1.17-5.02,1.17-.62,0-.97-.11-1.12-.2-.1-.05-.17-.11-.25-.31-1.41-3.8-4.05-5.97-6.29-7.17-1.11-.59-2.13-.95-2.89-1.17-.33-.09-.61-.16-.84-.21-.11-.06-.25-.14-.42-.23-.49-.27-1.2-.67-2.06-1.15-1.71-.96-4.02-2.28-6.39-3.67-2.38-1.39-4.8-2.85-6.77-4.12-.98-.63-1.83-1.2-2.48-1.68-.71-.51-1.04-.82-1.13-.92-.45-.51-1.13-1.08-1.82-1.63-.73-.58-1.62-1.24-2.6-1.95-1.38-1-2.97-2.12-4.57-3.25-.65-.46-1.31-.92-1.95-1.37-2.24-1.58-4.3-3.07-5.74-4.21-.02-.02-.04-.03-.06-.05l.21-.18-2.08-1.94c-3.24-3.01-6.03-4.85-8.65-5.72-2.73-.9-5.08-.69-7.23.05-1.61.56-3.18,1.46-4.58,2.27-.32.18-.62.36-.92.52-1.72.97-3.43,1.81-5.47,2.26-4.86,1.07-7.13,1.57-9.59,1.82-2.48.25-5.17.25-10.87.25-5.37,0-7.46-1.08-8.26-1.74-.39-.32-.58-.62-.72-.9-.07-.13-.09-.19-.13-.26-.03-.07-.07-.15-.15-.31-.06-.11-.15-.31-.28-.51-.1-.15-.28-.4-.57-.64-.03-.03-.06-.07-.11-.13-.16-.2-.38-.5-.65-.87-.53-.74-1.18-1.71-1.83-2.67-.64-.96-1.26-1.91-1.72-2.62-.23-.35-.42-.65-.55-.85l-.15-.24-.04-.06v-.02s-.01,0-.01,0h0s0,0,0,0l-2.1,1.35,2.1-1.35Zm5.11,7.52s0,0,0,0c.03.03.03.03,0,0Z"/>
  <path class="cls-2" d="m412.85,168.5s.16.01.33.03c1.96.1,11.64.3,11.64.3l.58-7.81s10.32-11.08,25.84-20.17l2.31-10.69-9.24-11.23s-.17-8.44-11.57-8.37h-4.12l-8.01,7.81s.58,1.52,1.49,7.42c2.31,4.46,2.57,1.6,2.23,9.33l.5,3.67s-2.81,5.5-9.99,9.81c-7.19,4.31-9.33,9.73-10.23,11.16-.91,1.44-2.4,10.21-3.39,12.75-.99,2.54-3.97,8.6-4.04,9-.07.4-3.39,3.98.82,11.4h3.8l4.38-15.38s.5-2.48.58-2.79c.08-.32,6.11-6.21,6.11-6.21v-.03Z"/>
</svg>